<svg xmlns="http://www.w3.org/2000/svg" viewBox="0 0 2048 2048"><path fill="#050404" d="M2041.5 1024a1017.5 1017.5 0 1 1-2035 0 1017.5 1017.5 0 1 1 2035 0"/><path fill="#7c577f" d="m1260 1607.5 3 1v2l1.65.25c3.18 1.02 5.28 2.77 7.91 4.81l4.83 3.7q3.74 2.86 7.55 5.62l2.59 1.9c2.47 1.72 2.47 1.72 5.04 3.2 2.43 1.52 2.43 1.52 4.35 3.45 3.41 3.4 7.55 5.7 11.6 8.26l2.48 1.81v2l2.15.74c3.23 1.43 5.68 3.22 8.47 5.38l3.2 2.45 1.61 1.24c3.23 2.46 6.54 4.82 9.83 7.2l5.7 4.16 2.91 2.14 2.62 1.93a50 50 0 0 0 5.14 3.3 27 27 0 0 1 5.37 4.46q3.06 2.25 6.19 4.44 8.09 5.7 16 11.68 11.03 8.33 22.28 16.35l3.65 2.6 1.82 1.28q6.09 4.38 11.95 9.05c3.03 2.3 6.23 4.32 9.46 6.34l1.65 1.26v2l2.15.74c3.23 1.43 5.68 3.22 8.47 5.38l3.22 2.46 3.16 2.42q8.28 6.16 16.81 11.97c6.8 4.63 13.41 9.42 19.9 14.5 5.42 4.2 10.98 8.21 16.53 12.25q2.49 1.81 4.98 3.65l2.9 2.13 2.51 1.84c2.37 1.66 2.37 1.66 5.17 3.25l2.2 1.41v2l2.15.74c3.23 1.43 5.68 3.22 8.47 5.38l3.15 2.42 1.61 1.24c3.48 2.62 7.07 5.1 10.64 7.6l1.98 1.62v2l1.6.21c3.38 1.11 5.9 3.2 8.65 5.35l1.68 1.29 4.07 3.15c-1.47 3.69-3.36 5.25-6.62 7.44l-2.48 1.68c-6.58 4.27-13.27 8.35-19.96 12.44l-2.32 1.42q-6.74 4.12-13.62 8.02-2.38 1.43-4.75 2.88a336 336 0 0 1-13.73 7.76 262 262 0 0 0-11.95 6.84 225 225 0 0 1-21.64 11.25c-4.3 2-8.53 4.07-12.68 6.4-6.57 3.67-13.4 6.75-20.25 9.87q-1.34.6-2.7 1.24c-18.82 8.6-18.82 8.6-26.3 11.76l-3.03 1.28a356 356 0 0 1-14.85 5.91c-3.74 1.43-7.41 3-11.1 4.55a281 281 0 0 1-22.02 8.26 704 704 0 0 0-22.38 7.75c-9.27 3.2-18.76 5.76-28.17 8.48a765 765 0 0 0-14.54 4.35 432 432 0 0 1-34.23 8.9 888 888 0 0 0-16.6 3.92 424 424 0 0 1-28.94 6.23q-3.65.63-7.31 1.3-8.9 1.58-17.83 3.07l-2.9.49c-46.98 7.83-94.5 11.6-142.1 12.51l-2.87.07c-22.72.47-45.45-.93-68.13-2.07l-2.5-.12c-15.6-.79-31.06-1.83-46.5-4.16a298 298 0 0 0-15.19-1.78 174 174 0 0 1-17-2.44c-3.63-.65-7.28-1.07-10.93-1.5-4.95-.59-9.76-1.33-14.6-2.51-2.77-.6-5.53-.94-8.34-1.3-27.26-3.78-54.44-10.87-80.94-18.19l-3.7-1.02a585 585 0 0 1-20.62-6.23c-3.12-1-6.23-1.88-9.42-2.66-5.44-1.32-10.71-3.17-16.01-4.96l-3.05-1.03-6.11-2.06-9.47-3.15a220 220 0 0 1-11.8-4.27 297 297 0 0 0-11.25-4.17l-2.3-.8-4.45-1.5a50 50 0 0 1-10.82-5.15q-2.88-1.14-5.77-2.2a264 264 0 0 1-20.42-8.53 226 226 0 0 0-8.18-3.46c-13.6-5.62-26.75-12.24-39.71-19.18a315 315 0 0 0-18.5-9.03 46 46 0 0 1-9.42-5.6q-2.85-1.5-5.75-2.87c-4.2-2.07-8.2-4.24-12.13-6.79-2.64-1.67-5.35-3.22-8.06-4.78-3.63-2.1-7.16-4.25-10.62-6.62-3.22-2.2-6.5-4.1-9.94-5.94a159 159 0 0 1-16.93-10.72A231 231 0 0 0 479 1826.5c.56-3.42 1.45-4.74 4.24-6.76q.97-.72 1.99-1.45l2.08-1.48 2.06-1.5c3.2-2.32 5.7-4.03 9.63-4.81v-2c2.09-1.48 2.09-1.48 4.94-3.19 4.41-2.73 8.49-5.62 12.54-8.85 3.17-2.47 6.43-4.81 9.7-7.15l1.77-1.26q4-2.85 8.1-5.56c4.2-2.83 8.15-5.96 12.15-9.06 2.43-1.68 3.92-2.52 6.8-2.93v-2c2.09-1.48 2.09-1.48 4.94-3.19 6.4-3.95 12.2-8.4 17.93-13.25 2.13-1.56 2.13-1.56 5.13-1.56v-2a89 89 0 0 1 5.25-3.56 220 220 0 0 0 16.16-11.65c2.33-1.61 3.83-2.38 6.59-2.79v-2a89 89 0 0 1 5.25-3.56 220 220 0 0 0 16.16-11.65c2.33-1.61 3.83-2.38 6.59-2.79v-2a89 89 0 0 1 5.31-3.44c3.28-1.98 6.04-3.81 8.69-6.56q2.43-1.86 4.94-3.62l2.59-1.86c2.47-1.52 2.47-1.52 4.72-2.04l1.75-.48 1-3c2.18-1.5 2.18-1.5 4.88-3 3.16-1.77 5.6-3.4 8.12-6q2.43-1.86 4.94-3.62l2.59-1.86c2.47-1.52 2.47-1.52 4.72-2.04l1.75-.48 1-3c2-1.6 2-1.6 4.44-3.19l2.43-1.6c2.13-1.21 2.13-1.21 4.13-1.21v-2a84 84 0 0 1 5.13-3.5 321 321 0 0 0 16.32-11.35c4.33-3.15 4.33-3.15 6.55-3.15l1-3c2.33-1.68 2.33-1.68 5.25-3.44a87 87 0 0 0 10.75-7.56c3.46 1.02 4.14 2.24 6 5.42q1.08 2.16 2.13 4.33c6.02 11.88 13.58 22.1 22.38 32.08 2.1 2.4 3.47 4.1 4.49 7.17q1.99 1.02 4 2a91 91 0 0 1 3.88 3.94c5.87 6 12.42 11.03 19.12 16.06l2.52 1.9c34.52 25.04 78.4 40.56 119.48 50.6 3.13.79 6.22 1.71 9.31 2.63 10.6 3.04 21.33 5.03 32.19 6.87q1.35.22 2.74.47 3.02.5 6.04.96 2.97.45 5.93.94c15.44 2.6 30.65 3.13 46.3 3.08q5.94 0 11.89.05c36 .1 73.13-5.06 105.6-21.5l2.47-1.22a197 197 0 0 0 36.53-24.78l3.46-2.87c10.79-9 18.89-18.78 27.09-30.13q2.14-2.93 4.32-5.85c16.78-22.45 27.09-44.17 30.13-72.15"/><path fill="#ab9c8c" d="M2027 1024a1003 1003 0 1 1-2006 0 1003 1003 0 1 1 2006 0m-21.75 0a981.25 981.25 0 1 0-1962.5 0 981.25 981.25 0 1 0 1962.5 0"/><path fill="#fefefe" d="M825.46 268.33h2.76l5.78-.01q4.35-.01 8.69-.04c13.64-.05 26.94.53 40.12 4.4l2.24.65c12.05 3.56 23.95 8.12 34.95 14.17l3.32 1.77c22.12 12 40.32 31.43 52.68 53.23q1.2 1.87 2.44 3.75c2.9 4.63 5.28 9.53 7.67 14.43a230 230 0 0 0 3.87 7.54c5.29 9.97 8.95 20.19 12.29 30.95q.92 2.92 1.91 5.82a156 156 0 0 1 7.54 38.89c.34 3.22 1.06 6.28 1.78 9.43 1.52 7.22 1.95 14.27 2.12 21.64.13 4.75.47 9.39 1.12 14.1 1.65 12.22 1.52 24.4 1.45 36.7l-.02 6.96c-.18 42.08-.18 42.08-1.67 52.18a94 94 0 0 0-.78 10.51l-.11 3.93-.06 2.04-.3 10.44-.06 2.05c-.56 17.7-.56 17.7-1.7 24.82a92 92 0 0 0-.62 12.05v67.9c.01 4.07.39 7.87 1.13 11.87q.32 4.9.52 9.81c.22 4.38.92 8.42 1.93 12.68 1.34 6.14 2.07 12.43 2.96 18.65.97 6.53 2.23 12.87 3.9 19.25q.93 3.59 1.69 7.24c.7 3.25 1.61 6.38 2.62 9.56a27 27 0 0 1 1.38 10.81c-3.88-.56-5.71-2.32-8.5-5-9.11-8.43-19.08-15.72-30.16-21.35-5.88-4.14-6.1-14.03-7.34-20.65q-.45-3.4-.7-6.84c-.3-2.16-.3-2.16-1.27-5.36-1.15-4.25-1.6-8.3-1.97-12.67-.57-6.13-1.36-12.1-2.56-18.13-2.07-10.76-2.54-21.68-3.26-32.6-.44-6.2-1-12.38-1.56-18.57-.37-4.08-.72-8.16-.92-12.26l-.2-3.82-.12-3.2c-.5-2.9-1.07-3.86-3.44-5.55-2.56-.31-2.56-.31-5 0-2 2-2 2-2.22 4.02.12 6.12.47 12.18 1.02 18.28l.26 2.9.81 9.11.53 5.98c3.17 35.86 3.17 35.86 5.04 51.77l.33 3.02a130 130 0 0 0 3.54 18.12c.94 3.8 1.5 7.6 1.94 11.49l.27 2.12a114 114 0 0 1 .48 5.19c-1 1-1 1-4.18 1.1q-2.13 0-4.26-.04h-2.28l-9.7-.08c-16.81-.13-16.81-.13-24.58 1.02-2-3-2-3-3.19-6.81-1.96-6.12-4.96-11.72-7.9-17.41-1.9-3.72-3.72-7.5-5.55-11.26-1.36-2.52-1.36-2.52-3.03-4.67-1.33-1.85-1.33-1.85-1.33-4.85h-2l-.81-1.55a194 194 0 0 0-10.12-16.37 611 611 0 0 1-6.07-9.2l-1.75-2.7C886 709.5 886 709.5 886 707.5l-3-1c-1.32-1.46-1.32-1.46-2.69-3.37l-1.57-2.18-1.74-2.45c-8.49-11.78-8.49-11.78-13-17-4.75.75-4.75.75-7 3 .2 4.74 2.82 7.97 5.56 11.63l1.37 1.86q2.02 2.76 4.07 5.51l6.01 8.24q4.98 6.94 9.8 14l2.45 3.59A243 243 0 0 1 902 755.5l2.25 4.17c12.7 23.46 12.7 23.46 11.75 31.83l-4.38 2.19-2.78 1.4q-2.64 1.32-5.3 2.57c-6.97 3.33-13.2 7.49-19.54 11.84l-7.16 4.68a35 35 0 0 0-4.84 4.32c-3.56 3-3.56 3-7 3l-.96-1.8a598 598 0 0 0-10.17-18.07l-1.27-2.2a82 82 0 0 0-7.6-10.93l-2.75-4.93c-3.45-5.72-7.67-10.99-11.7-16.3l-1.23-1.62-3.44-4.52a37 37 0 0 1-3.88-6.63h-2c-1.3-1.33-1.3-1.33-2.88-3.25a177 177 0 0 0-10.06-10.81l-1.56-1.56a158 158 0 0 0-11.17-10.07L793 727.5v-2l-10-2c-1 5-1 5-.38 7.06 1.38 1.94 1.38 1.94 3.58 3.69 3.2 2.56 5.64 5.41 8.26 8.54 1.54 1.71 1.54 1.71 3.54 2.71v2l3 1c1.5 1.5 1.5 1.5 3.12 3.44q3.92 4.64 8.07 9.06C837 788.57 837 788.57 837 797.5h2a52 52 0 0 1 3.31 5.44l1.89 3.33 1.8 3.23 1.4 2.48 2.4 4.36q1.27 2.3 2.62 4.54l1.4 2.37 1.26 2.1c1.1 2.59 1.2 4.37.92 7.15-1.81 2.81-1.81 2.81-4 5h-3l-.73 2.14c-1.47 3.3-3.35 5.77-5.58 8.61A101 101 0 0 0 833 863.5l-1.69 2.75a45 45 0 0 0-3.31 7.25c-1.81-.19-1.81-.19-4-1-2.43-3.34-4.09-7.15-5.91-10.85-1.92-3.78-4-7.46-6.09-11.15l-1.75-3.09q-3.11-5.46-6.25-10.91l-1.29-2.24-4.02-6.95-1.28-2.21-1.21-2.08-1.07-1.84c-1.13-1.68-1.13-1.68-2.65-3.2-1.92-1.92-3.03-4.18-4.33-6.54-2.05-3.47-4.52-6.62-6.96-9.81l-1.62-2.14-4.57-5.99-2.02-2.65q-2.47-3.19-4.98-6.35l-2.14-2.7a140 140 0 0 0-13.43-14.74C751 765.5 751 765.5 751 763.5l-1.77-.77c-2.45-1.35-4.02-2.82-5.95-4.83l-2.12-2.16-2.22-2.3a201 201 0 0 0-22.74-20.05l-2.2-1.89v-2q-1.1-.37-2.2-.77c-2.98-1.3-5-2.83-7.49-4.92-8.6-7.04-17.65-12.83-27.31-18.31l-3.41-1.96c-18.73-10.7-38.26-19.78-58-28.4l-8.32-3.65-4.72-2.06-7.43-3.24-2.36-1.02c-5.53-2.44-5.53-2.44-7.76-4.67q-2.55-1.14-5.1-2.2c-8.22-3.45-16.1-7.87-23.96-12.05l-1.88-1A231 231 0 0 1 544 639.5l-4.95-2.9-2.82-1.64-5.78-3.37a204 204 0 0 1-16.17-10.5 109 109 0 0 0-7.28-4.59c-4.97-2.92-9-5.8-13-10l-3.75-3.25c-4.62-4.01-9.2-8.15-13.25-12.75v-2l-3-1a118 118 0 0 1-4.88-7.44l-1.35-2.2A148 148 0 0 1 459 561.5l-1.11-2.4c-2.4-5.53-3.6-10.83-4.46-16.8a58 58 0 0 0-1.5-6.86c-2.66-10.2-2.24-21.2-2.3-31.69l-.02-2.32c-.08-30.72-.08-30.72 7.39-41.93l1.19-3.81c3.42-10.66 8.89-21.27 16.81-29.19l1.44-2.44c1.83-3 4.04-5.1 6.56-7.56l2.69-3.31 2.31-2.69h2l2-4h2l2-4h2l.8-1.82c1.27-2.31 2.46-3.48 4.51-5.12a70 70 0 0 0 6.5-5.93c2.19-2.13 2.19-2.13 4.19-2.13l1-3c1.92-1.66 3.84-3.18 5.87-4.69l1.76-1.32 5.37-3.99 3.24-2.43c7.49-5.57 7.49-5.57 9.76-5.57l1-3c1.56-1.1 1.56-1.1 3.44-2.06a20 20 0 0 0 5.56-3.94h3v-2c2.9-2.04 4.4-3 8-3v-2l1.88-1c5-2.68 9.92-5.46 14.75-8.44 5.52-3.39 10.82-6.39 16.93-8.61a87 87 0 0 0 8.19-3.82c11.6-5.88 23.63-10.47 35.81-14.97 8.42-3.11 8.42-3.11 12.25-4.8a90 90 0 0 1 9.75-3.42 186 186 0 0 0 17.06-5.8 288 288 0 0 1 17.5-6.26l3.13-1.06A210 210 0 0 1 716 287.5a372 372 0 0 0 9.65-3.06c10-3.2 20.24-5.42 30.54-7.44l3.31-.65 6.54-1.27 7.51-1.5c11.2-2.19 22.46-3.05 33.84-3.83 2.61-.25 2.61-.25 5.35-.77 4.25-.63 8.42-.64 12.72-.65"/><path fill="#7c577f" d="M1959 766.5a208 208 0 0 1 7.13 25.38l1.5 6.77.66 2.97c.75 3.03 1.72 5.93 2.71 8.88q.74 3.55 1.38 7.13l.78 4.3.41 2.27q.88 4.59 1.81 9.14a1215 1215 0 0 1 5.78 30.37c13.14 73.53 15.85 149.05 11.53 223.54l-.18 3.1a531 531 0 0 1-3.83 38.79c-.65 4.94-1.13 9.9-1.56 14.86-1.78 19.24-5.2 38.48-8.74 57.46l-1.24 6.84a588 588 0 0 1-7.62 34.95 800 800 0 0 0-4.78 20.9 132 132 0 0 1-4.07 14.38 76 76 0 0 0-1.98 7.22 487 487 0 0 1-12.69 42.75l-2.06 6.25a471 471 0 0 1-4.88 13.84q-1.78 4.91-3.5 9.85a282 282 0 0 1-6.24 15.86c-1.53 3.7-2.93 7.45-4.32 11.2-3.15 8.47-6.35 16.9-10.5 24.94-2.51 4.88-4.42 9.92-6.29 15.08a56 56 0 0 1-4.21 7.98 718 718 0 0 0-3 7q-1.8 3.74-3.69 7.44l-2.12 4.21-1.1 2.17-5.34 10.68-2.82 5.64-1.83 3.7a313 313 0 0 1-9.47 17.47 887 887 0 0 0-11.26 20.26 93 93 0 0 1-4.37 6.93 93 93 0 0 0-5.75 9.63c-3.26 6.1-7.1 11.77-10.98 17.49a156 156 0 0 0-5.27 8.38 405 405 0 0 1-14 21l-3.56 5.06-1.74 2.47a295 295 0 0 0-6.44 9.85l-1.26 1.62h-2l-.69 2.06a38 38 0 0 1-6.31 9.94h-2l-.26 1.7c-.96 2.98-2.54 4.78-4.55 7.17a98 98 0 0 0-6.38 8.44c-1.81 2.69-1.81 2.69-4.08 4.92a103 103 0 0 0-8.3 9.77l-2.8 3.63-4.66 6c-2.18 2.62-4.56 4.96-6.97 7.37q-2.65 3.06-5.25 6.19a477 477 0 0 1-12.69 14.53q-3.73 4.15-7.36 8.4a138 138 0 0 1-5.1 5.29q-2.84 2.82-5.65 5.66a16839 16839 0 0 1-26 26.09l-2.45 2.46a160 160 0 0 1-12.5 11.38 453 453 0 0 0-5 5c-21.73 20.91-21.73 20.91-28 23l-1 3c-2.15 1.86-4.3 3.6-6.56 5.31l-1.93 1.5a588 588 0 0 1-10.07 7.57 51 51 0 0 0-6 5.18 64 64 0 0 1-5.94 5.32l-1.66 1.3c-2.55 1.13-4.21.55-6.84-.18l-.88-3.3a470 470 0 0 0-8.64-28.3 607 607 0 0 1-4.23-13.03l-1.17-3.72c-.95-3.2-1.78-6.4-2.57-9.63-.85-3.38-1.83-6.73-2.82-10.08l-.66-2.24q-2.1-7.02-4.47-13.95a399 399 0 0 1-6.25-20.75 358 358 0 0 0-6.3-19.96c-1.6-4.64-2.85-9.28-4.01-14.04l-1-2.44c-.89-2.28-1.4-4.3-1.89-6.7-.99-4.56-2.38-8.9-3.92-13.3a294 294 0 0 1-6.45-21.46 63 63 0 0 0-3.26-9.56 53 53 0 0 1-2.96-10.24c-.85-3.77-2.13-7.4-3.4-11.05l-1.6-4.73-.78-2.32a239 239 0 0 1-6.17-21.02c-1.09-4.16-2.45-8.24-3.76-12.33-.81-2.85-.81-2.85-.81-5.85l1.67-.42c11.86-3.06 22.78-6.59 33.5-12.56q2.71-1.5 5.47-2.96c17.77-9.6 31.81-23.46 46.05-37.56l2.66-2.62a221 221 0 0 0 16.65-18.88l4.31-5.19a542 542 0 0 0 16.69-21.81l1.32-1.78c11.65-15.77 21.66-32.56 31.24-49.66q2.12-3.78 4.28-7.54c4.24-7.48 8.4-14.83 11.16-23.02h2l.33-2.02c.83-3.66 2.09-7.1 3.42-10.6l.73-1.97a155 155 0 0 1 4.9-11.51c2.8-6.1 4.96-12.36 7.05-18.72l1.9-5.73a390 390 0 0 0 7.67-26.45l.82-3.01c2.27-8.55 3.66-17.18 4.87-25.93l.33-2.4a271 271 0 0 0 2.42-37.35v-2.25c-.05-14.15-.7-28.78-4.69-42.43l-.64-2.33q-1.04-3.66-2.11-7.3l-.77-2.62q-2.21-7.52-4.5-15.01-1.15-3.77-2.27-7.55c-6.94-23.1-17.85-44.24-34.04-62.22a167 167 0 0 1-3.04-3.53c-18.8-22.21-46.13-31.61-73-40q-4.7-1.5-9.38-3.07v-2a90 90 0 0 1 5.31-3.62 266 266 0 0 0 15.51-10.91c2.18-1.47 2.18-1.47 4.18-1.47v-2q2.46-1.57 5-3 2.61-1.85 5.19-3.75 5.66-4.16 11.37-8.25l2.44-1.75c2-1.25 2-1.25 4-1.25v-2a130 130 0 0 1 5-3q4.22-3.08 8.38-6.26c2.34-1.55 3.88-2.32 6.62-2.74v-2a89 89 0 0 1 5.25-3.56c5.61-3.63 10.9-7.53 16.16-11.66 2.33-1.6 3.83-2.37 6.59-2.78v-2a89 89 0 0 1 5.31-3.44c3.28-1.98 6.04-3.81 8.69-6.56q2.43-1.86 4.94-3.62l2.59-1.86a16 16 0 0 1 6.47-2.52v-2a89 89 0 0 1 5.31-3.44c3.28-1.98 6.04-3.81 8.69-6.56q2.43-1.86 4.94-3.62l2.59-1.86c2.47-1.52 2.47-1.52 4.72-2.04l1.75-.48 1-3c2.18-1.5 2.18-1.5 4.88-3 3.16-1.77 5.6-3.4 8.12-6q2.43-1.86 4.94-3.62l2.59-1.86c2.47-1.52 2.47-1.52 4.72-2.04l1.75-.48 1-3c2.18-1.5 2.18-1.5 4.88-3 3.16-1.77 5.61-3.4 8.12-6a141 141 0 0 1 4.31-3.06 439 439 0 0 0 11.3-8l3.74-2.74c4.43-3.2 4.43-3.2 6.65-3.2v-2a84 84 0 0 1 5.13-3.5 321 321 0 0 0 16.32-11.35c4.34-3.15 4.34-3.15 6.55-3.15l1-3c2.25-1.53 2.25-1.53 5-3.06 4.9-2.74 4.9-2.74 6-4.94a190 190 0 0 1 5-3q3.52-2.38 7.01-4.8c1.99-1.2 1.99-1.2 3.99-1.2l1-3c2.25-1.53 2.25-1.53 5-3.06 4.9-2.74 4.9-2.74 6-4.94q2.48-1.54 5-3 2.61-1.85 5.19-3.75 5.66-4.16 11.37-8.25l2.44-1.75c2-1.25 2-1.25 4-1.25v-2a130 130 0 0 1 5-3q4.22-3.08 8.38-6.26c2.34-1.55 3.88-2.32 6.62-2.74v-2c3.23-2.15 4.28-2.2 8-2M97.77 754.51c4.57.77 7.44 2.85 10.92 5.8l1.64 1.33q3.71 3.04 7.38 6.12c2.29 1.74 2.29 1.74 5.29 2.74l1.69 1.75A32 32 0 0 0 131 777a40 40 0 0 1 8 6.5q3.15 2 6.4 3.85c.26.2.26.2 1.6 1.15v2l1.62.22c3.34 1.1 5.62 3.06 8.38 5.22 3.26 2.54 6.28 4.78 10 6.56l1.75 1.81c2.54 2.47 5.2 4.08 8.25 5.85 2 1.34 2 1.34 3.86 3.24 3.45 3.39 7.59 5.72 11.66 8.3l2.48 1.8v2l2.06.69a38 38 0 0 1 9.94 6.31v2l1.62.22c3.34 1.1 5.62 3.06 8.38 5.22a58 58 0 0 0 10 6.56l3 3c2.34 1.6 4.74 3.1 7.14 4.6l1.86 1.4v2l2.15.74c3.23 1.43 5.68 3.22 8.47 5.38l3.15 2.42 1.61 1.24c3.48 2.62 7.07 5.1 10.64 7.6l1.98 1.62v2l1.66.25c3.12 1 5.14 2.68 7.71 4.69l3.19 2.44 1.69 1.3c3.58 2.7 7.27 5.28 10.94 7.87a208 208 0 0 1 9.81 7.45 628 628 0 0 0 6.69 4.81l1.84 1.32q7.71 5.47 15.47 10.87a30 30 0 0 1-5.31 7.94l-1.9 2.13q-2.06 2.2-4.23 4.3c-13.6 13.94-23.34 31.63-32.56 48.63l-1.16 2.15c-10.18 19.15-16.19 40.4-18.84 61.85q-.5 2.66-1.06 5.31a179 179 0 0 0-3.48 27.64l-.13 2.61a774 774 0 0 0-.64 32.81l-.01 3.3c-.02 20.16 1.19 39.73 5.93 59.4.4 2 .58 3.95.7 6 .57 5.81 2.55 11.25 4.36 16.78 1.6 4.95 2.98 9.95 4.34 14.97a99 99 0 0 0 3.99 10.18c1.24 3.18 2.4 6.4 3.57 9.6 8.44 22.8 19.08 44.48 31.43 65.4l1.18 2.02c7.7 13.21 17 25.28 26.82 36.98l2.51 3.07c9.2 11.18 19.3 21.74 30.49 30.93l2.21 1.84a234 234 0 0 0 34.3 23.4c6.08 3.42 6.08 3.42 8.84 5.73 4.28 3.27 9.16 5.32 14.02 7.6l6.8 3.2 3.46 1.63q4.73 2.25 9.43 4.55c38.6 18.84 38.6 18.84 59.58 21.56 2.72.4 5.34.92 8.03 1.5 5.64 1.16 11.21 1.43 16.95 1.61l3.05.12q3.66.14 7.33.26c-2.17 9.63-5.23 18.83-8.5 28.12l-2.9 8.33-.7 2q-2.3 6.66-4.27 13.4a250 250 0 0 1-3.13 9.71l-.66 1.96-2.69 7.98a450 450 0 0 0-4.03 12.62 534 534 0 0 1-4.68 14.57 484 484 0 0 0-6.22 20l-.78 2.68-.7 2.4c-.74 2.23-.74 2.23-1.7 4.02-1.17 2.49-1.73 4.98-2.36 7.64-1.57 5.9-3.66 11.66-5.62 17.44l-2.65 7.87-.65 1.93a364 364 0 0 0-4 12.83c-1.58 5.2-3.39 10.34-5.14 15.5a372 372 0 0 0-8.04 26.36c-.84 3.23-1.8 6.3-3.15 9.36a37 37 0 0 0-2.5 7.47c-.93 3.81-.93 3.81-1.94 5.8-1.31 2.66-1.71 5.4-2.32 8.28-1.4 5.68-3.52 11.16-5.48 16.67a383 383 0 0 0-9.17 29.24c-3.78 14.2-3.78 14.2-6.65 20.7a56 56 0 0 0-2.78 7.97q-1.21 4.36-2.53 8.71l-.96 3.26c-2.68 7.76-2.68 7.76-5.1 10.18-5.63-.3-8.73-1.78-13.13-5.25l-3-2.33c-2.87-2.42-2.87-2.42-5.26-4.83-3.24-3.21-6.73-6-10.3-8.84A352 352 0 0 1 384 1754.5l-5.63-5.13-2.8-2.54a411 411 0 0 0-6.45-5.7c-11.33-9.9-22.05-20.4-32.67-31.05l-7.03-7.02-4.54-4.54-2.08-2.09a230 230 0 0 1-11.29-12.17c-2.14-2.49-4.36-4.9-6.57-7.32C294 1664.9 294 1664.9 294 1662.5l-3-1c-1.37-1.29-1.37-1.29-2.88-3.06l-1.83-2.17A2098 2098 0 0 1 271 1637.5l-2.23-2.77a1549 1549 0 0 1-7.04-8.83 540 540 0 0 1-15.95-20.94 353 353 0 0 0-5.03-6.77c-6.75-8.99-6.75-8.99-6.75-11.69l-3-1c-1.79-2.36-1.79-2.36-3.63-5.31l-1.85-2.93a20 20 0 0 1-2.52-6.76h-2c-1.5-1.86-1.5-1.86-3.13-4.31l-1.63-2.43c-1.24-2.26-1.24-2.26-1.24-5.26h-2c-11-13.65-11-13.65-11-20h-2a85 85 0 0 1-3.25-5.44 156 156 0 0 0-7-11.44c-3.27-4.82-5.89-9.27-6.75-15.12h-2l-1.05-1.95-4.89-9.05-1.78-3.3a840 840 0 0 0-11.48-20.61c-2.25-3.94-4.06-7.9-5.8-12.09l-2.77-5.52c-1.91-3.86-3.7-7.79-5.52-11.7a327 327 0 0 0-5.84-11.9 139 139 0 0 1-6.7-15.97c-1.17-2.91-1.17-2.91-2.64-5.32-1.9-3.2-3.1-6.55-4.34-10.03a253 253 0 0 0-6.19-15.5 264 264 0 0 1-7.3-19.17c-1.64-4.76-3.36-9.5-5.07-14.24-5.34-14.72-10.39-29.41-14.58-44.5-1.85-6.65-1.85-6.65-3.1-9.77a58 58 0 0 1-2.4-8.12c-1.05-4.28-2.25-8.52-3.43-12.76a627 627 0 0 1-9.28-37.5q-.96-4.6-2-9.18a701 701 0 0 1-8.22-43.18q-1.14-7.21-2.17-14.45-.5-3.55-1.02-7.09a922 922 0 0 1-7.15-65.42q-.37-4.65-.82-9.3c-.72-8.56-.8-17.15-.96-25.73l-.2-8.95c-.82-38.75-.98-77.75 3.34-116.3.57-5.36.99-10.72 1.42-16.09.57-6.78 1.31-13.48 2.45-20.2.57-3.6.97-7.23 1.36-10.86 2.14-18.88 5.64-37.54 9.5-56.14q1.04-5.16 2.05-10.33a713 713 0 0 1 5.33-24.16l.52-2.2c2.36-10 4.83-19.95 7.54-29.86l.84-3.13.8-2.86.7-2.47c1.73-4.25 2.99-5.1 7.62-5.09"/><path fill="#fefefe" d="M434.56 890.31h2.05c8.17.02 16.13.2 24.2 1.56 4.92.8 9.88 1.19 14.84 1.64 10.96 1 21.77 2.21 32.56 4.43a446 446 0 0 0 24.65 4.17q10.1 1.5 20.14 3.39c18.46 3.41 36.88 6.57 55.53 8.8l3.69.44 3.25.37c2.53.39 2.53.39 4.53 1.39a223 223 0 0 0 9.81 1.4 1292 1292 0 0 0 10.63 1.31c16.81 2.02 33.65 3.2 50.56 4.1l3.53.2c13.5.71 26.95 1.19 40.47.99l3.09-.04q10.8-.14 21.59-.33l18.63-.31 3.37-.05c6-.12 11.91-.43 17.88-1.04a139 139 0 0 1 12-.48l2.4-.06c2.3-.02 2.3-.02 6.04.31 2.13 3.2 2.33 4.6 2.75 8.31.99 6.57 3.41 16.85 8.25 21.7q.06 2.99 0 5.99c-6.28 2.78-12.95 3.43-19.69 4.44l-2.17.33c-15.45 2.33-30.95 3.74-46.52 4.92q-4 .34-7.98.84c-4.69.53-9.32.61-14.04.6h-16.44c-8.84.01-17.65-.12-26.47-.57l-2.28-.12a248 248 0 0 1-18.92-2.03 72 72 0 0 0-12.49-.4c-1.5 1.49-1.33 2.98-1.56 5.05l-.44 3.94c3.14 1.05 5.88 1.38 9.17 1.72l3.7.39 3.88.39 7.55.78 3.38.35q3.25.36 6.47.9c5.4.66 10.75.63 16.19.64l22.6.05c11.7.03 23.12-.14 34.7-1.76 4.22-.58 8.37-.7 12.61-.77 12.27-.41 24.23-2.84 36.28-5.07 5.47-.98 10.97-1.8 16.47-2.62 1.16 4 .77 7.44.19 11.5l-.25 2.01a26 26 0 0 1-2.94 9.49 80 80 0 0 0-.88 4.87c-3.04 18.05-3.04 18.05-6.12 21.13q-3.24.5-6.5.87l-2.1.26q-6.7.81-13.4 1.5c-12.09 1.28-23.47 3.13-35.08 6.8-2.65.79-5.32 1.43-8 2.09-2.88.72-5.7 1.56-8.55 2.42l-3.22.96a70 70 0 0 0-9.15 4.1l-6 2c-7.93 2.95-15.64 6.35-22.88 10.75-2.07 1.22-3.81 1.67-6.12 2.25l-1 2q-2.82 1.58-5.75 3l-3.17 1.56a126 126 0 0 1-8.08 3.44v2h-2c-.13 5.75-.13 5.75 1 8 5.43.53 8.8-1.19 13.31-3.94l6.45-3.76c3.7-2.14 7.46-4.17 11.24-6.18l2.06-1.11c4.54-2.41 9.12-4.24 13.94-6l1-1q2.5-.07 5 0v-2l18.3-6.11 5.22-1.75c11.11-3.73 22.01-5.75 33.65-7.15l2.93-.35 2.64-.3c2.26-.35 2.26-.35 5.26-1.35q4.1-.11 8.19-.06l2.27.01 5.54.05-.22 1.78c-1.72 16.66-2.18 32.84 3.22 48.83 1 3.4 1 3.4 0 6.4h-2v2l-3.45.78a103 103 0 0 0-13.3 4.52l-2.36.94-8.85 3.53c-9.68 3.86-9.68 3.86-12.04 6.22l-2.63.87c-4.02 1.35-7.53 3.23-11.25 5.25a607 607 0 0 1-17.43 9.07l-2 1q-4.55 2.26-9.11 4.47c-8.52 4.15-8.52 4.15-12.4 7.03a34 34 0 0 1-8.16 4.36c-3.64 1.71-6.93 4.02-10.27 6.23-2.75 1.72-2.75 1.72-5.63 3.13a84 84 0 0 0-10.43 6.53l-1.92 1.3c-4.56 3.22-4.56 3.22-5.56 5.77-.21 2-.21 2 1.48 4.3 2.31 1.7 2.31 1.7 4.1 1.53 2.93-1.11 5.21-2.74 7.77-4.53 5.64-3.84 11.4-7.14 17.44-10.3 5.7-3.08 11.36-6.2 16.94-9.5 5.89-3.47 11.93-6.5 18.06-9.5l7.87-3.95 4.1-2.05 2.04-1.02 12.7-6.34q3.15-1.58 6.3-3.2c7.81-4.02 15.8-7.3 23.99-10.45l2.41-.94q2.78-1.05 5.6-2.06 1.11-.42 2.3-.84l2.38-.85 2.13-.76c2.6-.66 4.51-.95 7.18-.55 1.66 1.9 1.66 1.9 3.06 4.5l1.53 2.77q2.26 4.38 4.43 8.8c3.11 6.1 7.08 11.5 11.33 16.85l1.65 2.08 1.71 2.08c1.29 1.92 1.29 1.92 1.29 4.92-12.43 4.13-12.43 4.13-17.31 4.5-10.5.83-21.12 4.22-30.69 8.5l-2.29.96a123 123 0 0 0-13.86 7.09c-1.85.95-1.85.95-3.85.95v2l-2.5 1.19a111 111 0 0 0-9.77 5.82c-1.73 1-1.73 1-3.73 1l-1 3c-2 1.6-2 1.6-4.44 3.18l-2.43 1.6c-2.13 1.21-2.13 1.21-4.13 1.21l-.76 1.78c-1.4 2.51-2.9 3.89-5.12 5.72a88 88 0 0 0-6.5 5.94c-1.62 1.56-1.62 1.56-3.62 1.56l-.75 1.75c-1.44 2.59-3.11 4.27-5.25 6.31a39 39 0 0 0-6 6.94h-2l-.63 2.1c-1.8 3.82-4.37 6.4-7.3 9.4-3.56 3.67-6.5 7.05-9.07 11.5q-2.17 2.97-4.42 5.9c-2.5 3.33-4.88 6.75-7.27 10.16a814 814 0 0 1-13.74 19.03 110 110 0 0 0-6.57 9.91q-2.7 4.24-5.44 8.44l-1.44 2.23a568 568 0 0 1-13.87 20.45 387 387 0 0 0-10.38 15.25c-3.39 5.16-7.3 9.58-11.52 14.06a77 77 0 0 0-5.54 6.82c-7.97 10.48-18.18 20.03-28.8 27.75l-3.23 2.37c-5.03 3.64-9.85 7.1-15.83 8.96a52 52 0 0 0-6.83 3.1 118 118 0 0 1-24.68 9.13l-2.34.6q-4.05.98-8.1 1.84l-3.52.8c-12.05 2.57-24.02 2.7-36.3 2.65q-5.21 0-10.41.05c-31.98.1-31.98.1-43.77-6.5a87 87 0 0 0-4.88-.94 36 36 0 0 1-11.12-4.06l-3.2-.83c-4.25-1.3-7.72-3.13-11.55-5.36l-2.12-1.22a245 245 0 0 1-26.34-17.46 354 354 0 0 0-7.1-5.26 74 74 0 0 1-8.93-8.1 81 81 0 0 0-5.45-4.9c-14.49-12.56-27.98-28.97-37.82-45.4-1.32-2.2-2.72-4.3-4.18-6.4-7.04-10.54-12.77-21.75-18.34-33.1q-1.89-3.82-3.82-7.61c-14.75-29.27-25.72-61.53-30.72-93.93-.43-2.43-.43-2.43-1.43-5.43-2.2-16.5-2.2-33.31-2.19-49.94v-2.7q-.02-14.84.61-29.68l.1-2.58c.32-6.4 1.31-12.41 2.72-18.66a141 141 0 0 0 1.82-10.44 97 97 0 0 1 2.94-13q.37-3.3.56-6.6c.5-2.7 1.49-5.01 2.6-7.51 1.4-3.18 2.58-6.45 3.78-9.7l1.6-4.26 2.5-6.73a127 127 0 0 1 14.44-26.97c1.68-2.47 3.26-5 4.83-7.54 8.52-13.4 18.57-25.45 30.57-35.85q2.03-1.76 4.02-3.56a30 30 0 0 1 10.1-6.28l1-3c23-17.84 51.86-25.2 80.56-25.19M1256 969.5c3.26.72 4.65 1.37 6.88 3.88a99 99 0 0 0 11.06 9.68l1.73 1.36a842 842 0 0 0 22.27 16.58l2.26 1.64c14.17 10.25 14.17 10.25 21.8 13.86q1.88.98 3.74 1.98a1927 1927 0 0 0 15.34 8.12 178 178 0 0 0 27.17 11.6 64 64 0 0 1 8.13 3.42c5.96 2.83 12.66 3.7 19.1 4.95 2.77.54 5.36 1.18 8.08 1.98a70 70 0 0 0 11.82 2.01l2.07.24c14.24 1.53 28.55 1.93 42.86 1.95h2.53a370 370 0 0 0 36.22-1.75 410 410 0 0 1 84.19.44l2.06.22c4.39.54 8.45 1.6 12.69 2.84q2.3.33 4.63.5c3.49.34 6.13 1.12 9.37 2.5q4.48 1.09 9 2v2l1.73.26a78 78 0 0 1 28.81 11.21c2.58 1.6 5.21 3 7.9 4.4 5.92 3.2 11.22 7.05 16.56 11.13l2.34 1.75c8.5 6.45 16.24 13.23 22.73 21.73q1.91 2.5 3.96 4.88c4.82 5.66 8.24 11.6 11.38 18.28 1.32 2.79 2.73 5.47 4.21 8.17a84 84 0 0 1 8.38 31.19l1 2c.96 5.8 1.18 11.66 1.24 17.53l.03 2.38a1066 1066 0 0 1 .05 10.2c.02 13.75-.97 26.8-3.79 40.3q-.82 4.12-1.54 8.25c-.82 4.55-1.83 9-2.99 13.46-1.1 4.3-2.18 8.6-3.06 12.94-.84 3.89-2.34 7.3-3.94 10.94a265 265 0 0 0-2.25 7.44c-.94 3.2-1.99 6.36-3.06 9.51q-.92 2.77-1.75 5.55c-.94 2.5-.94 2.5-2.94 3.5q-1.08 2.98-2 6a267 267 0 0 1-13 29l-2.56 5.25a157 157 0 0 1-6.9 12.11c-1.66 2.85-3.1 5.74-4.54 8.7a99 99 0 0 1-7.7 13.05 78 78 0 0 0-2.86 4.52 101 101 0 0 1-5.16 7.53 72 72 0 0 0-2.71 4.24c-4.83 8-10.84 15.34-16.46 22.78a368 368 0 0 0-3.94 5.36l-1.6 2.21-1.38 1.92-1.19 1.33h-2l-2 5h-2l-.56 2.06c-1.7 3.46-3.8 5.47-6.56 8.1a85 85 0 0 0-6.62 7.55l-1.26 1.29h-2l-2 4h-2l-.75 1.88c-1.49 2.52-2.69 2.84-5.25 4.12-1.06 1.94-1.06 1.94-2 4-1.5 1.75-1.5 1.75-3 3h-2l-1 3h-2l-1 3c-1.76 1.47-1.76 1.47-4.12 3.06l-2.75 1.85-3.13 2.09-3.5 2.43c-11.36 7.84-22.6 14.16-36.07 17.67-3.32.87-6.55 1.9-9.8 2.96a123 123 0 0 1-37.48 5.39q-3.23 0-6.44.05c-10.12.05-19.02-1.7-28.71-4.5l-5.6-1.42a130 130 0 0 1-39.83-17.94c-2.6-1.66-5.26-3.1-8-4.52-6.36-3.39-11.9-7.71-17.57-12.12l-3.87-2.81c-5.17-3.86-9.99-8.16-14.86-12.38q-4.06-3.5-8.27-6.81-1.53-1.47-3-3l-2.31-2.31-2.69-2.69-1.66-1.59a157 157 0 0 1-4.34-4.41v-2h-2a89 89 0 0 1-3.87-4.75 71 71 0 0 0-6.31-7.4c-2.1-2.13-2.88-4.05-3.82-6.85h-2a101 101 0 0 1-4.25-5.06c-2.55-3.2-5.1-6.38-7.81-9.44-3.25-3.75-6.1-7.77-9-11.8a245 245 0 0 0-5.13-6.83 78 78 0 0 1-6.47-10.52c-1.96-3.43-4.27-6.58-6.57-9.8-2.8-4.05-5.28-8.3-7.77-12.55l-4.4-7.32q-3.8-6.33-7.56-12.68c-9.23-15.54-9.23-15.54-14.41-22.67a150 150 0 0 1-5.44-8.58 256 256 0 0 0-11.8-17.46l-1.17-1.62q-1.3-1.8-2.63-3.57c-3.59-4.88-3.59-4.88-3.59-7.1h-2c-1.34-1.88-1.34-1.88-2.94-4.56-4.18-6.76-8.84-13.1-13.59-19.45a552 552 0 0 1-4.35-5.98 231 231 0 0 0-21.58-25.42 250 250 0 0 1-3.9-4.14c-5.98-6.33-12.9-11.22-19.98-16.24q-2.26-1.67-4.45-3.47c-2.21-1.74-2.21-1.74-4.9-2.8-2.31-.94-2.31-.94-4.31-3.94.06-1.94.06-1.94 1-4q2.45-2.07 5-4l2-3h2l.69-2.12c1.6-3.5 3.85-5.94 6.31-8.88a99 99 0 0 0 3-6c4.47.51 6.62 2.11 10 5l3.31 2.13c.45.3.45.3 2.69 1.87v2l2.24.8a28 28 0 0 1 6.95 4.33l2.35 1.87 2.46 2 2.56 2.03a908 908 0 0 1 9.63 7.74 133 133 0 0 1 4.81 4.23v2l2 .56c6.7 3.22 11.49 8.88 16.22 14.47a60 60 0 0 0 5.78 5.47c4.11 3.5 7.53 7.38 11 11.5l1.77 2 3.16 3.56c1.07 1.44 1.07 1.44 1.07 3.44l1.74.72c2.74 1.55 4.37 3.35 6.45 5.72l2.38 2.7q3.58 4.25 7.06 8.61a69 69 0 0 0 11.37 11.25l5-2c.55-4.2.19-5.73-2.27-9.26q-1.54-1.74-3.1-3.43l-1.66-1.85q-2.46-2.74-4.97-5.46l-2.7-2.97-4.94-5.39a207 207 0 0 1-6.8-8.08c-6.25-7.72-12.68-15.46-20.56-21.56a62 62 0 0 1-6.81-7.37 63 63 0 0 0-7.9-7.66c-3.37-2.9-6.63-5.93-9.9-8.95-2.39-2.02-2.39-2.02-4.88-3.47-2.51-1.55-2.51-1.55-4.83-3.88-3.83-3.81-8.18-6.74-12.6-9.83a149 149 0 0 1-5.08-3.84v-2l-1.6-.21c-3.38-1.11-5.9-3.2-8.65-5.35l-1.68-1.29-4.07-3.15c.74-5.66 1.92-11.09 3.28-16.62 1.58-7.42 1.96-14.82 2.28-22.38l.13-2.93.31-7.07c2.31-.61 2.31-.61 5-1 3 1.81 3 1.81 6 4q2.5 1.04 5 2 2.51 1.48 5 3c9.24 5.5 18.5 10.96 28 16l1.87 1 10.77 5.7q6.22 3.28 12.42 6.61c3.83 2.05 7.67 4.08 11.57 6a58 58 0 0 1 6.06 3.32c2.31 1.37 2.31 1.37 4.65 2.3a89 89 0 0 1 7.54 3.5c2.9 1.48 5.8 2.9 8.8 4.13a37 37 0 0 1 6.44 3.32c8.18 4.74 16.39 7.92 25.88 7.12.31-2.75.31-2.75 0-6-3.71-3.68-7.9-5.29-12.75-6.94-5.25-1.88-10.12-3.86-14.93-6.72a161 161 0 0 0-9.13-4.78l-7.19-3.56-8.78-4.4-7.31-3.61-2.15-1.06-4.15-2.04a98 98 0 0 1-11.61-6.89q-2.47-1.07-4.95-2.1a82 82 0 0 1-16.49-9.4c-3.91-2.93-8.26-4.9-12.65-7.03a93 93 0 0 1-8.82-5.17c-4.24-2.64-8.68-4.94-13.09-7.3 0-6.7 5.27-11.3 9.75-16 2.25-2 2.25-2 5.25-3 1.06-1.87 1.06-1.87 2-4l2-3h3l.73-1.7c1.54-2.78 3.42-4.84 5.58-7.17a250 250 0 0 0 15-18l1.38-1.8 3.31-4.33c4.6.48 7.07 1.42 10.56 4.44l2.6 2.18 2.84 2.38a314 314 0 0 0 25 18l3.55 2.32a256 256 0 0 0 19.45 11.68l3.2 1.75a165 165 0 0 0 16.8 8.25l5 2.31c5.68 2.6 11.46 4.9 17.27 7.2 14.08 5.58 14.08 5.58 17.77 7.61 2.31 1.04 4.06 1.18 6.59 1.2l2.35.04 2.02-.36c2-3 2-3 2-6a36.5 36.5 0 0 0-16.02-7.52c-3-.73-5.67-2.06-8.46-3.36-2.82-1.25-5.68-2.3-8.58-3.37-7.95-3.03-15.4-6.84-22.94-10.75l-2.39-1.23c-12.28-6.3-23.9-13.05-35.18-21.05a292 292 0 0 0-4.64-3.22c-10.66-7.27-20.74-15.42-30.79-23.5.9-5.63 2.78-11.08 4.98-16.34 3.43-8.96 3.28-18.39 3.14-27.85l-.02-3.75zm99.7-624.2c19.87-.6 40.47 2.51 59.38 8.6q2.93.9 5.9 1.7c5.71 1.55 10.74 3.22 16.02 5.9q2.3.75 4.63 1.37a122 122 0 0 1 14.26 5.3c4.21 1.8 8.46 3.5 12.71 5.22 2.4 1.11 2.4 1.11 4.4 3.11 2.63.62 2.63.62 5 1v2l2.02.27c3.84.94 7.17 2.63 10.67 4.42l2.15 1.09q7.08 3.61 13.83 7.81a137 137 0 0 0 7.4 4.1c14.8 7.99 28.76 17.88 41.93 28.31l8.83 6.94q5.09 4 10.23 7.93a86 86 0 0 1 8.94 8.13l2.88 2.31c3.14 2.57 5.7 5.52 8.31 8.63 2.9 3.3 6.05 6.33 9.2 9.38A162 162 0 0 1 1620 486.5l2.44 3.13a1078 1078 0 0 1 9.62 12.58A230 230 0 0 1 1666 567.5l1.2 3.55c2.3 7.1 3.78 14.06 4.8 21.45l.56 3.32c3.38 22.06 3.9 47.47-4.33 68.45a93 93 0 0 0-3.46 11.83c-.9 2.78-2.23 4.92-3.77 7.4a640 640 0 0 0-3.19 6.56 114 114 0 0 1-20.2 28.67 184 184 0 0 0-8.07 9.25c-1.54 1.52-1.54 1.52-3.6 2.48-2.46 1.32-2.77 2.56-3.94 5.04-1.84 1.89-1.84 1.89-3.94 3.69l-2.09 1.82c-1.97 1.49-1.97 1.49-4.97 2.49v2a109 109 0 0 1-5.87 4.69l-1.8 1.35A403 403 0 0 1 1588 762.5l-3.06 2.12a121 121 0 0 1-7.5 4.38 42 42 0 0 0-6.88 4.5c-3.85 3-8.17 4.89-12.56 7l-5.75 2.87-3.05 1.52-6.65 3.37a248 248 0 0 1-19.73 9.04c-2.81 1.2-5.49 2.54-8.2 3.95-3.54 1.82-6.6 2.93-10.62 3.25l-1 3c-2.73 1.06-2.73 1.06-6.19 2a64 64 0 0 0-12.81 5q-2.96 1.2-5.94 2.31a667 667 0 0 0-14.5 5.69q-7.4 2.99-14.93 5.62a156 156 0 0 0-13.49 5.41 151 151 0 0 1-16.58 6.4 83 83 0 0 0-9.87 4 124 124 0 0 1-14.65 5.54c-5.13 1.74-10.07 3.9-15.04 6.03l-5.94 2.44a299 299 0 0 0-12.37 5.5c-4.7 2.2-9.43 4.18-14.25 6.06a204 204 0 0 0-19.44 9l-5.75 2.87q-1.47.75-3 1.5-3.52 1.77-7.07 3.5c-11.51 5.67-22.8 11.52-33.18 19.13l-3 1-2 3c-1.67.97-3.34 1.95-5.05 2.84-3.55 2.11-6.6 4.87-9.77 7.52l-2.87 2.39-2.88 2.42c-2.43 1.83-2.43 1.83-4.43 1.83l-.81 1.81c-1.21 2.24-2.14 3.69-4.19 5.19-1.95-.2-1.95-.2-4-1-1.25-1.57-1.25-1.57-2.44-3.69-2.92-4.65-6.34-8.6-10.06-12.62l-1.65-1.82c-5.02-5.35-10.79-8.9-17.12-12.53-2.02-1.57-2.66-3.04-3.73-5.34l2.55-2.96 3.33-3.85 1.68-1.95 1.62-1.88q.73-.86 1.5-1.73c1.32-1.63 1.32-1.63 3.32-4.63h2l.66-1.66c1.78-3.1 4.21-5.38 6.78-7.84 5.22-5.04 5.22-5.04 7.28-7.84l1.28-1.66h2l.75-1.88c1.49-2.52 2.69-2.84 5.25-4.12l.86-1.79c1.4-2.73 3.17-4.46 5.35-6.62.42-.4.42-.4 2.52-2.5l5.26-5.18 4.84-4.78q2.2-2.16 4.32-4.4c1.85-1.73 1.85-1.73 3.85-1.73v-2l4-1v-2c1.36-1.38 1.36-1.38 3.31-3a248 248 0 0 0 9.88-8.88c10.12-9.18 21.6-15.91 33.43-22.64l2.23-1.28q2.1-1.17 4.24-2.3 2.5-1.37 4.91-2.9c.94-3.25.94-3.25 1-6l-3-2v-2c-6.36 1.87-12.04 3.58-17.26 7.74a33 33 0 0 1-6.18 3.32c-9.12 4.39-17.28 11.24-24.92 17.81-2.64 2.13-2.64 2.13-4.64 2.13l-1 3-2.44.94c-2.56 1.06-2.56 1.06-3.44 2.86-1.43 2.8-3.26 4.38-5.62 6.45l-2.4 2.14c-2.1 1.61-2.1 1.61-4.1 1.61l-1 3c-1.94 2.19-1.94 2.19-4 4h-2l-1 3h-2l-2 4h-2l-.62 1.62a31 31 0 0 1-7.38 8.38h-2l-2 4h-2l-.94 1.87-2.06 4.13h-2l-.69 1.69a23 23 0 0 1-4.68 5.67c-3.04 3.06-5.81 6.37-8.64 9.63l-1.99 2.01h-2l-.7 1.58a74 74 0 0 1-6.11 9.17l-1.3 1.82c-1.97 2.64-3.23 4.26-6.48 5.07-3.2-.85-4.12-2.06-6.1-4.7l-2.07-2.76q-5.04-7.2-9.85-14.56c-11.93-18.16-11.93-18.16-17.39-23.62 0-4 0-4 1.4-5.6l1.98-1.59 2.22-1.84 2.4-1.97a316 316 0 0 0 18.46-17.52c2.54-2.48 2.54-2.48 5.2-4.6a27 27 0 0 0 5.03-5.13l2.31-2.75h2l.78-1.77a25 25 0 0 1 4.72-5.98l1.84-1.86c1.66-1.39 1.66-1.39 3.66-1.39l.68-1.62c1.77-3.18 4.12-5.78 6.5-8.5 4.11-4.76 7.88-9.6 11.4-14.8 1.42-2.08 1.42-2.08 3.6-4.77 3.2-4.07 5.58-8.65 7.82-13.31h2l.3-1.68c.87-2.89 2.28-5 3.95-7.5a173 173 0 0 0 7.42-12.43c2.18-3.93 4.54-7.75 6.88-11.6a20 20 0 0 0 2.45-7.79c-1.12-1.81-1.12-1.81-3-3-2.5-.5-2.5-.5-5 0-1.69 2.5-1.69 2.5-3 5h-2l-.75 2.62c-1.33 3.6-3.06 6.26-5.25 9.38q-2.19 3.61-4.32 7.25A389 389 0 0 1 1227 749.5l-1.86 2.85c-2.63 3.87-5.44 7.6-8.26 11.34l-3.2 4.23-1.41 1.87q-1.7 2.31-3.27 4.71h-2l-.81 1.77a32 32 0 0 1-4.19 5.98l-1.56 1.86c-1.44 1.39-1.44 1.39-3.44 1.39l-.8 1.8a19 19 0 0 1-4.47 5.4l-1.94 1.79-2.04 1.82c-4.45 4-8.63 8-12.41 12.65-2.19 2.51-4.75 4.45-7.34 6.54l-2.25 2.25c-3.36 3.36-6.9 6.5-10.45 9.66-2.3 2.09-2.3 2.09-3.85 3.93-1.45 1.16-1.45 1.16-3.26 1.11-3.06-1.33-5.51-3.22-8.19-5.2-6-4.3-12.05-7.23-19-9.75l-1.78-.74c-5.33-2.16-10.55-3.15-16.22-3.95l-2.64-.39-6.36-.92c.83-4.73 3.8-6.78 7.38-9.69l1.78-1.5c2.59-2.15 4.63-3.74 7.84-4.81l1-3c1.78-1.82 1.78-1.82 3.94-3.69l2.15-1.88c1.91-1.43 1.91-1.43 3.91-1.43v-2c1.68-1.62 1.68-1.62 3.88-3.44a28 28 0 0 0 6.12-6.56h2l.88-1.81c1.12-2.19 1.12-2.19 3.12-5.19h2l.78-1.7a49 49 0 0 1 4.72-7.05l1.84-2.42 1.66-1.83h2l.73-1.6a81 81 0 0 1 5.65-8.78 242 242 0 0 0 16.43-26.68l1.35-2.56c8.23-15.73 16.23-31.45 20.78-48.7l.76-2.85a882 882 0 0 0 5.65-22.51c2.31-9.8 3.87-19.55 4.84-29.57 1.39-13.6 3.07-27.18 4.79-40.75l.9-7.13c5.77-45.9 5.77-45.9 10.12-63.5l.77-3.23 1.53-6.28q.96-3.9 1.87-7.8c1.5-6.3 3.26-12.1 5.83-18.06.63-2.4.63-2.4 1-4.5.83-4.11 2.35-7.64 4-11.5q.5-2.25.94-4.5c.75-3.67 2-6.43 4-9.64a45 45 0 0 0 2.94-6.61c5.35-13.73 13.7-26.55 23.25-37.75l1.44-1.7a80 80 0 0 1 10-9.52c1.43-1.28 1.43-1.28 2.43-3.28l3-1 2.22-2.25c3.18-3.14 6.49-5.36 10.28-7.69l2.13-1.31A144 144 0 0 1 1328 349.5l1.96-.8c6.54-2.55 13.07-2.9 20.04-3.13q2.85-.11 5.7-.27"/><path fill="#7c577f" d="M1070.84 57.43a1620 1620 0 0 1 15 .39 356 356 0 0 1 38.31 3.32c4.71.6 9.43 1 14.16 1.42a205 205 0 0 1 18.79 2.45c3.37.57 6.75.97 10.15 1.36 19.1 2.3 37.96 6.04 56.75 10.13l2.52.55a1542 1542 0 0 1 17.44 3.9 1718 1718 0 0 1 29.79 7.17l3.72.92 3.51.87 3.15.78c2.87.81 2.87.81 5.25 1.78 2.8 1.1 5.63 1.81 8.56 2.52 11.5 2.86 22.8 7.04 34.04 10.8l7.04 2.34a726 726 0 0 1 26.08 9.14c12.53 4.63 25.01 9.36 37.13 15 4.2 1.87 8.51 3.44 12.82 5.02 2.95 1.21 2.95 1.21 5.33 2.67a49 49 0 0 0 8.55 3.75 96 96 0 0 1 9.57 4.48l4.22 2.13q1.05.55 2.15 1.1 5.06 2.55 10.13 5.08l4.01 2q3.94 1.98 7.88 3.93c27.12 13.45 27.12 13.45 38.67 20.59 3.05 1.85 6.15 3.6 9.25 5.35a475 475 0 0 1 17 10.17q3.29 2.04 6.67 3.95l3.33 1.88 3.02 1.68 2.17 1.45v2l2.06.75a87 87 0 0 1 9.94 5.25v2l2.62.75a34 34 0 0 1 9.38 5.25v2l1.96.62c4.3 1.95 7.92 4.68 11.73 7.44l4.57 3.29 2.03 1.47a21 21 0 0 0 3.71 2.18v2l1.6.22c3.35 1.1 5.89 3.1 8.65 5.22l1.68 1.23a85 85 0 0 1 4.07 3.33v2l4 1v2l2.2.76c3.04 1.34 5.08 2.9 7.61 5.05l2.88 2.42 1.59 1.33c3.27 2.74 6.6 5.43 9.9 8.13l1.98 1.62c3.29 2.67 6.6 5.27 10.02 7.77 3.23 2.4 6.02 5 8.82 7.92a432 432 0 0 0 7.85 7.35q5.19 4.75 10.71 9.15a148 148 0 0 1 13.23 12.26c3.12 3.18 6.33 6.12 9.77 8.95 2.42 2.17 4.36 4.8 6.44 7.29q2.62 2.3 5.3 4.5c2.53 2.24 4.54 4.9 6.7 7.5q2.2 1.82 4.43 3.62c2.38 2.09 4.34 4.48 6.4 6.89 2.77 3.17 5.66 6.23 8.54 9.3A298 298 0 0 1 1755 387.5a89 89 0 0 0 7.25 8.18c3.86 3.96 7.16 8.3 10.55 12.64l2.95 3.77c1.25 1.41 1.25 1.41 3.25 2.41l1 3a406 406 0 0 0 5 5q2.18 2.74 4.25 5.56l2.36 3.2 1.2 1.63q2.83 3.82 5.69 7.61l6.93 9.21 2.38 3.16 2.15 2.84c6.04 8.25 6.04 8.25 6.04 10.79h2a49 49 0 0 1 3.19 4.87c2.3 3.73 4.64 7.38 7.18 10.94 3.27 4.6 6.33 9.33 9.36 14.09q3.1 4.87 6.33 9.66 3.74 5.61 7.31 11.31l2.1 3.31c1.53 2.82 1.53 2.82 1.53 5.82h2l.78 1.44q3.6 6.57 7.49 12.95A247 247 0 0 1 1877 562.5l1.66 3.21c1.34 2.79 1.34 2.79 1.34 4.79h2l1.47 2.94.97 1.94 2.15 4.3q2.76 5.54 5.55 11.06c3.39 6.73 6.7 13.48 9.77 20.37q1.54 3.35 3.21 6.64a157 157 0 0 1 4.88 10.75l4 9 .88 1.96a414 414 0 0 1 8.04 19.22 842 842 0 0 1 7.76 20.34c1.34 3.54 2.82 7 4.32 10.48a147 147 0 0 1 1.69 4.69l.76 2.2c.55 2.11.55 2.11.55 6.11h-270c2.24-6.71 2.24-6.71 3.77-9.7a151 151 0 0 0 11.23-30.3l.93-3.49c2.08-8 3.22-15.66 3.27-23.92l.02-2.4q.03-3.85.03-7.69v-2.65c-.07-54.72-21.78-103.52-57.25-144.85l-2.6-3.13c-22.73-27.25-49.15-50.2-78.27-70.39q-3.11-2.16-6.2-4.37a259 259 0 0 0-25.94-16.02q-2.96-1.63-5.88-3.33c-9.46-5.47-19.16-10.2-29.06-14.8q-3.9-1.84-7.74-3.84a88 88 0 0 0-10.28-4.39q-3.29-1.21-6.53-2.54a710 710 0 0 0-21.5-8.19l-3.28-1.18a204 204 0 0 0-26.18-7.08l-6.31-1.32c-12.43-2.61-24.8-4.82-37.54-4.8h-3.22c-10.95.16-21.82 1.14-32.72 2.2l-2.66.24c-9.53.92-18.83 2.08-28.16 4.26-2.88.67-5.76 1.2-8.68 1.68a104 104 0 0 0-15.25 4l-2.29.77A109 109 0 0 0 1236 365.5l-2.03 1.6c-21.87 17.66-34.43 49.1-41.97 75.4h-2c-2.6-5.66-4.35-11.37-6-17.38a339 339 0 0 0-6-19.62l-1.47-4.36-.72-2.17a625 625 0 0 1-5.87-18.22 228 228 0 0 0-4.38-12.94 215 215 0 0 1-5.77-18.92c-1.12-4.19-2.43-8.2-4-12.25-1.57-4.22-2.88-8.53-4.23-12.83l-.93-2.95a1233 1233 0 0 1-4.76-15.36 237 237 0 0 0-4.3-12.69 209 209 0 0 1-5.78-19 67 67 0 0 0-3.28-9.78c-2.07-4.83-3.3-9.79-4.62-14.86a96 96 0 0 0-4.89-13.67q-1.21-3.89-2.31-7.81a549 549 0 0 0-8.01-25.2q-1.4-4.08-2.74-8.18l-3.19-9.53a497 497 0 0 1-5.95-18.66c-.99-3.23-2.08-6.42-3.18-9.62a283 283 0 0 1-5.83-19.75 93 93 0 0 0-4.79-13.25q-1.05-3.46-2-6.94c-2.92-10.36-6.53-20.5-10.08-30.66-7.24-20.8-7.24-20.8-7.92-27.4 1-1 1-1 3.84-1.07m-79.78-3.24h2.48c13.23.08 13.23.08 14.46 1.3.6 8.95-3 16.71-6.3 24.78a106 106 0 0 0-3.96 11.8c-1.28 4.2-2.95 8.25-4.55 12.34A232 232 0 0 0 989 116.5l-2.96 8.9-7.04 21.1-1 3q-1 3.04-2.04 6.07a371 371 0 0 0-5.15 16.38q-1.02 3.14-2.2 6.2a298 298 0 0 0-4.28 12.34l-1.5 4.55-.79 2.37a865 865 0 0 1-12.64 36.32 250 250 0 0 0-5.9 17.7l-.75 2.52-1.5 5.2A69 69 0 0 1 936 272.5q-1.06 2.99-2 6a52 52 0 0 1-9-4.31c-4.76-2.7-9.69-4.6-14.8-6.5a254 254 0 0 1-8.26-3.25L897 262.5l-2.62-1.03c-9.2-3.37-18.7-4.74-28.38-5.97l-2.24-.3c-7.94-.92-15.9-.94-23.89-.95h-2.3c-23 0-45.9 2.3-68.57 6.25l-2.43.4c-31.44 5.34-62.6 14.53-92.43 25.71-5.09 1.9-10.23 3.6-15.39 5.27-16.54 5.4-32.73 11.85-48.75 18.62l-2.18.92c-32.57 13.83-62.7 32.29-90.38 54.31-2.44 1.77-2.44 1.77-4.44 1.77v2c-1.55 1.34-1.55 1.34-3.75 2.94-16.19 12.3-32.2 27.67-44.25 44.06l-1.3 1.75c-17.18 23.45-25.1 47.39-27.7 76.25l-.55 5.33q-.51 4.95-.98 9.92-.43 4.54-1.04 9.06c-1.51 11.82-1.65 23.6-1.68 35.5l-.02 2.53c-.16 34.36 9.05 65.55 32.78 91.16 9.17 9.2 19.15 16.22 30.49 22.5l1.9 1.07a225 225 0 0 0 23.7 11.5c3.33 1.4 6.58 2.9 9.84 4.43a275 275 0 0 0 15.95 6.74c7.7 3.05 15.2 6.54 22.61 10.26a406314 406314 0 0 1-195.14.54h-2.07l-66.45.19-70.2.19-42.08.12a21289 21289 0 0 1-45.46.12 4824 4824 0 0 1-20.75.06l-7.47.01-2.2.02c-4.95-.02-4.95-.02-7.18-2.25-.25-5.83 1.57-10.77 4-16q.72-2.09 1.37-4.19c1.5-4.6 3.36-9 5.25-13.44q1.88-4.62 3.57-9.3a154 154 0 0 1 8.31-18.94c1.75-3.64 3.13-7.34 4.5-11.13a162 162 0 0 1 9-20q2.17-4.24 4.31-8.5l1.06-2.07c1.58-3.12 2.87-6.02 3.63-9.43h2l.73-2.98c1.28-4.46 3.36-8.34 5.58-12.4l1.23-2.27a1055 1055 0 0 1 7.28-13.23c1.96-3.52 3.85-7.08 5.75-10.64a64 64 0 0 1 4.43-6.48c.69-2.25.69-2.25 1-4h2l.8-2.68a37 37 0 0 1 4.45-8.5A206 206 0 0 0 200 510.5h2l.72-2.54c1.48-4 3.46-7.28 5.78-10.83l1.22-1.95a96 96 0 0 1 3.28-4.68h2l.35-1.73a25 25 0 0 1 3.09-6.52l1.3-2.14 1.26-1.61h2l.28-1.68c.91-2.94 2.41-4.96 4.22-7.44 3.43-4.75 3.43-4.75 4.5-6.88h2l.69-2.06a38 38 0 0 1 6.31-9.94h2l.22-1.61c1.1-3.34 3.1-5.88 5.22-8.64l1.23-1.68a85 85 0 0 1 3.33-4.07h2l.25-1.68c1-3.08 2.66-4.92 4.75-7.38l2.48-2.95 2.52-2.99 4.37-5.37q5.76-7.02 11.66-13.9 5.01-5.92 9.63-12.12c1.34-1.61 1.34-1.61 3.34-2.61l1-3 4.14-3.3c2.33-2.13 4.2-4.48 6.17-6.95a124 124 0 0 1 11.35-12.39 102 102 0 0 0 5.21-5.72c5.24-6.03 10.95-11.61 16.6-17.25l5.86-5.86c11.05-11.06 11.05-11.06 16.99-16.1 3.4-2.9 6.65-6 9.92-9.07a163 163 0 0 1 8.1-7.1c2.66-2.26 2.66-2.26 3.66-4.26l3-1a138 138 0 0 0 3.36-3.35 172 172 0 0 1 17.95-15.56c3.67-2.85 7.27-5.78 10.88-8.71l2.05-1.67 1.99-1.62 1.93-1.57q1.8-1.5 3.56-3.03c3.98-3.49 3.98-3.49 7.28-3.49l1-3c2.36-2 2.36-2 5.31-4.12l2.93-2.14c2.76-1.74 2.76-1.74 5.05-2.3l1.71-.44 1-3c2-1.6 2-1.6 4.44-3.19l2.43-1.6c2.13-1.21 2.13-1.21 4.13-1.21v-2a90 90 0 0 1 5.37-3.5c5.45-3.32 5.45-3.32 7.63-5.5h3v-2c1.86-1.5 1.86-1.5 4.31-3.12l2.43-1.64c2.26-1.24 2.26-1.24 5.26-1.24v-2c1.62-1.24 1.62-1.24 3.87-2.6l2.43-1.49 2.57-1.53 2.56-1.57c6.3-3.81 6.3-3.81 8.57-3.81v-2l6.25-3.56 1.9-1.09q4.71-2.68 9.38-5.44l3.22-1.91 2.92-1.75c2.33-1.25 2.33-1.25 4.33-1.25v-2l2.21-.83a49 49 0 0 0 7.35-3.92c4.76-2.92 9.66-5.42 14.68-7.86a114 114 0 0 0 7.76-4.39 455 455 0 0 1 28.16-14.28 551 551 0 0 0 16.1-7.9c7.47-3.81 15.18-6.97 22.96-10.1 2.87-1.16 5.69-2.43 8.5-3.7a472 472 0 0 1 30.23-12.26l8.31-3.11c23.05-8.68 23.05-8.68 34.33-12.02q8.26-2.49 16.47-5.13l2.82-.9q6.42-2.02 12.8-4.2c3.37-1.12 6.75-2.05 10.2-2.88 4.23-1.04 8.42-2.24 12.62-3.4a628 628 0 0 1 37.48-9.27q4.72-1 9.41-2.04a638 638 0 0 1 37.38-7.27 866 866 0 0 1 40.5-5.83q6-.73 11.97-1.66c10.37-1.5 20.82-2.32 31.26-3.17l3.3-.28a535 535 0 0 1 45.26-1.91"/><path fill="#fefefe" d="M904.19 1174.31c3.8.2 3.8.2 6.56 1.13 4.7 1.53 9.34 1.78 14.25 2.06l2.22.13c7.01.2 13.87-1.05 20.78-2.13l7-1c.41 11.77-.63 22.8-2.58 34.39q-.63 3.99-1.15 7.98a218 218 0 0 1-5.7 29.54q-.94 3.47-1.8 6.95c-1.9 7.57-3.83 14.92-6.95 22.1-1 2.5-1.54 5.04-2.13 7.65a105 105 0 0 1-3.56 9.9l-.75 1.86a148 148 0 0 1-5.28 11.43 344 344 0 0 0-4.9 10.22l-5.12 10.84c-1.08 2.14-1.08 2.14-3.08 5.14-.36 2.86-.37 4.39 1.13 6.87 1.87 1.13 1.87 1.13 4.73 1.15 3.14-1.02 3.14-1.02 5.37-4.22q1.01-2.01 1.96-4.05l1.98-4.02.94-1.95q1.16-2.28 2.5-4.45c1.43-2.4 2.4-4.73 3.39-7.33q1.2-2.94 2.44-5.88l1.24-2.99q1.36-3.23 2.77-6.45c3.14-7.45 5.81-15.08 8.55-22.68l.76-2.1c2.9-8.05 5.05-15.97 6.56-24.36.6-3.17 1.37-6.27 2.16-9.39 4.06-16.94 5.53-34.47 7.21-51.77l.25-2.46.44-4.63c.5-5.18.5-5.18 1.62-6.29 5.33.46 9.93 1.84 14.88 3.75l2.14.82a83 83 0 0 1 12.56 6c3.96 2.34 8.04 4.43 12.1 6.58q5.25 2.76 10.32 5.85l-.22 3.43q-.9 15.1-.9 30.26l-.02 3.23a361 361 0 0 0 2.76 42.17q.38 3.25.74 6.51c.87 7.53 2.1 14.84 3.92 22.2 1.56 6.92 2.29 13.98 3.18 21 2.43 18.09 2.43 18.09 5.54 21.2q3.5.55 7 1c.22-7.16-.61-13.77-1.87-20.81l-1.06-6.08-.54-3.06a537 537 0 0 1-4.1-26.99l-.39-3.15c-.8-6.54-1.46-13.04-1.83-19.62-.21-2.29-.21-2.29-1.21-5.29-1.28-11.44-1.1-23-1.12-34.5l-.01-2.26c-.02-7.8.03-15.5 1.13-23.24 4.17.77 8.22 1.83 12.31 2.94 10.36 2.78 20.05 5.16 30.8 5.38l16.31.38 13.58.3.17 2.72.9 14.43c.84 13.63.84 13.63 1.47 17.88.67 5.76.72 11.54.85 17.33q.13 5.42.3 10.85l.11 3.93c.27 5.23.88 10.36 1.67 15.54 1.05 7.56 1.27 15.24 1.66 22.86a80 80 0 0 0 3.16 18.92c1.11 3.98 1.5 8 1.96 12.1 1.23 9.85 3.65 19.22 6.41 28.73l1.75 5.98c.64 2.98.7 5.69.59 8.73h2l1.14 3.48a468 468 0 0 0 9.86 27.52l.77 1.93 6.3 15.75c2.51 6.25 5.4 12.3 8.44 18.3 2.28 4.62 4.46 9.29 6.64 13.96q4.24 9.13 9.04 18l5.7 10.6a1301 1301 0 0 0 12.52 23.12c1.97 3.54 3.99 7 6.16 10.42 2.29 3.63 4.29 7.33 6.18 11.17l1.01 2.05c17.88 36.47 17.88 36.47 19.88 52.81.32 2.6.8 5.04 1.42 7.58 4.87 20.88 4.12 47.17-6.06 66.31-5.64 8.2-12.84 15.2-19.85 22.22l-5.44 5.52a134 134 0 0 1-30.71 23.26l-4.05 2.85c-4.9 3.28-9.92 5.35-15.45 7.34l-2.68 1c-8.14 3-16.27 5.8-24.7 7.87l-3.86.98a250 250 0 0 1-15.26 2.96l-2.56.44c-42.25 6.86-86.92 3.05-128.44-6.44l-3.25-.72a402 402 0 0 1-23.62-6.16l-3.73-1.07a524 524 0 0 1-25.4-8.05l-4.79-1.57-2.5-.81-4.81-1.57c-3.3-1.08-6-2.11-8.9-4.05q-2.48-.81-5-1.5a24 24 0 0 1-8-3.5q-3-1.02-6-2c-30.72-12.86-30.72-12.86-41-22v-2l-2.17-.74c-3.2-1.43-5.46-3.19-8.14-5.45l-2.89-2.42-2.8-2.39-2.5-2.08c-4.13-3.5-4.13-3.5-5.5-4.92v-2l-1.94-.81c-2.06-1.19-2.06-1.19-3.06-4.19l-4-2c-4.88-5.15-8.9-11.15-13-16.94l-1.2-1.68c-2.8-4.03-2.8-4.03-2.8-7.38h-2l-1.39-2.78-.9-1.8-1.93-3.87a464 464 0 0 0-4-7.87c-6.08-11.65-8.5-23.85-10.78-36.68l-.7-3.71c-4.05-24.94-1.36-50.24 5.7-74.29l.59-2.08c3.22-11.37 7.67-22.1 12.4-32.92H775l.27-2.55c.84-3.97 2.45-7.14 4.42-10.64l1.09-1.98q1.08-2 2.19-3.97 2.13-3.86 4.22-7.74l2.8-5.12 1.24-2.29c2.72-4.99 5.68-9.78 8.75-14.56q3.55-5.55 7.02-11.15c10.1-16.18 10.1-16.18 14.82-23.2 3.24-4.84 6.26-9.8 9.24-14.8l1.53-2.54a492 492 0 0 0 9.4-16.46H844l.63-2.44a32 32 0 0 1 4.06-7.56c3.44-4.96 6-10.24 8.6-15.67 1.71-3.33 1.71-3.33 3.8-6.46a34 34 0 0 0 3.85-7.56c1.35-3.55 2.82-7 4.44-10.44a217 217 0 0 0 11.88-33.02 72 72 0 0 1 3.32-9.5c1.3-3.08 2-5.68 2.48-8.98.4-2.68.79-5.01 1.85-7.52 5.54-14.51 6.46-31.18 8.28-46.48l1.88-15.58.33-2.66.28-2.35c.57-3.15 1.17-2.77 4.5-2.97"/><path fill="#fef2a2" d="M952.56 795.19h3.46c8.95.1 17.3 1.1 25.98 3.3v2.01l3.04.72c4.28 1.23 7.7 3.33 11.4 5.78l1.93 1.22a92 92 0 0 1 4.63 3.28v2l1.64.72c9.56 5.18 16.93 13.73 23.36 22.28l1.75 2.2c1.25 1.8 1.25 1.8 1.25 3.8 7.04-.03 11.95-1.62 17.97-5.23 18.93-11.03 40.56-15.97 62.22-11.52a55 55 0 0 1 13.81 5.75l3.44 1.81c11.25 6.56 11.25 6.56 13.63 11.35.93 1.84.93 1.84 3.93 2.84 7.84 8.38 14.62 18.02 20.56 27.81a140 140 0 0 0 15.1 20.52c5.34 6.08 5.34 6.08 5.34 8.67l2.52.75c16.84 6.06 31.47 18.5 41.48 33.25q1.03 2.5 2 5 1.7 3.32 3.44 6.63c8.9 17.48 10.43 40.35 5.56 59.37-3.59 9.93-9.44 18.5-15.75 26.88l-1.58 2.1a174 174 0 0 1-11.73 13.9c-1.94 2.12-1.94 2.12-4.07 4.89l-1.87 2.23h-2l-.74 1.73c-1.49 2.67-3.24 4.4-5.45 6.52a180 180 0 0 0-17.19 19.73c-1.62 2.02-1.62 2.02-4.25 4.52-6.77 7.13-8.02 13.78-7.93 23.38-.17 12.1-1.6 23.6-5.44 35.12h-2l-.55 2.05-.76 2.7-.74 2.67c-.99 2.68-2.18 4.36-3.95 6.58l-3 5c-9.16 14.68-24.89 26.36-41.94 30.44q-2.02.3-4.06.56l-3.73.52c-18.45 2-39.63 2.61-57.27-3.52l-2.72-.93c-11.26-3.93-21.7-8.47-31.75-14.87-17.9-11.35-39.05-20.26-60.53-18.2q-2.08.47-4.15 1c-6.1 1.46-12.18 1.3-18.41 1.25l-3.58.02c-21.77-.05-39.26-12.04-54.86-26.27l-2.08-1.87c-19.62-18.5-34.84-49.8-36.04-76.8l-.16-11.85c.04-8.53.85-16.69 4.5-24.47 1.44-3.73 2.04-7.68 2.82-11.58 1.38-6.64 3.16-13.18 4.89-19.73a99 99 0 0 0 3.07-18.7l.14-2.07c.4-7.77.65-13.63-4.14-19.93-3-4.82-3-4.82-3-7h-2c-5.1-12.12-6.28-23.45-6.31-36.5l-.02-3.73c.05-5.77.38-10.3 2.33-15.77l.37-3.37c.78-4.47 2.46-7.7 4.63-11.63l1.28-2.5c5.31-10.17 11.78-20.17 19.72-28.5h2l.62-1.62a31 31 0 0 1 7.38-8.38h2l1-3c1.97-1.7 3.92-3.27 6-4.81l1.78-1.34A214 214 0 0 1 908.25 807l2.16-1.18a76 76 0 0 1 13.68-5.72c1.91-.6 1.91-.6 4.41-1.66 7.9-2.96 15.7-3.3 24.06-3.25"/><path fill="#020101" d="M2005.25 1024a981.25 981.25 0 1 1-1962.5 0 981.25 981.25 0 1 1 1962.5 0m-11 0a970.25 970.25 0 1 0-1940.5 0 970.25 970.25 0 1 0 1940.5 0"/><path fill="#a790a9" d="M1620.75 756.38h29.07l16.14.01 23.34.02a68278 68278 0 0 1 74.66.03h2.29l11.37.01 94.38.05 1 4c-14.74 12-14.74 12-18 12v2a113 113 0 0 1-5 3 276 276 0 0 0-4.81 3.5 545 545 0 0 1-16.19 11.34 295 295 0 0 0-15.55 11.48c-2.26 1.55-3.77 2.27-6.45 2.68v2a89 89 0 0 1-5.25 3.56 219 219 0 0 0-16.16 11.65c-2.59 1.79-2.59 1.79-4.87 2.36l-1.72.43-1 3c-2.18 1.5-2.18 1.5-4.87 3-3.17 1.77-5.62 3.4-8.13 6a163 163 0 0 1-4.94 3.62l-2.59 1.86c-2.47 1.52-2.47 1.52-4.72 2.04l-1.75.48-1 3c-2.14 1.46-2.14 1.46-4.81 2.94a38 38 0 0 0-9.19 7.06 207 207 0 0 1-6.12 4.31l-3.47 2.36-1.73 1.18c-3.3 2.26-6.52 4.6-9.75 6.93-1.93 1.22-1.93 1.22-3.93 1.22v2a83 83 0 0 1-5.12 3.5 325 325 0 0 0-16.33 11.35c-4.33 3.15-4.33 3.15-6.55 3.15l-1 3c-2.25 1.53-2.25 1.53-5 3.06-4.9 2.74-4.9 2.74-6 4.94a193 193 0 0 1-5 3 802 802 0 0 0-7.01 4.8c-1.99 1.2-1.99 1.2-3.99 1.2l-1 3c-2 1.6-2 1.6-4.44 3.19l-2.43 1.6c-2.13 1.21-2.13 1.21-4.13 1.21v2a115 115 0 0 1-5 3 304 304 0 0 0-5.19 3.75q-5.66 4.16-11.37 8.25l-2.44 1.75c-2 1.25-2 1.25-4 1.25v2a113 113 0 0 1-5 3 276 276 0 0 0-4.81 3.5 545 545 0 0 1-16.19 11.34 295 295 0 0 0-15.55 11.48c-2.26 1.55-3.77 2.27-6.45 2.68v2a89 89 0 0 1-5.25 3.56 219 219 0 0 0-16.16 11.65c-2.59 1.79-2.59 1.79-4.87 2.36l-1.72.43-1 3c-5.22 3.66-9.47 4.69-15.75 5.12l-4.48.39-2.66.2q-3.44.32-6.86.78c-14.3 1.83-28.6 1.85-42.98 1.83q-4.28 0-8.54.02c-21 .13-40.58-.86-60.73-7.34a117 117 0 0 1 9.19-10.06c5.07-4.99 9.28-10.72 13.6-16.36q1.47-1.9 2.97-3.8c10.66-13.7 23.63-33.58 24.87-51.34-.78-4.29-2.2-6.01-5.63-8.44a214 214 0 0 0-11-7l-2.2-1.34a907 907 0 0 0-43.84-25.1 83 83 0 0 0-9.96-4.56v-2c9.45-4.03 18.9-8.03 28.5-11.66 4.46-1.7 8.89-3.5 13.31-5.28q10.18-4.1 20.46-7.9 6.74-2.53 13.42-5.22c9-3.63 18.01-7.15 27.19-10.32a159 159 0 0 0 16.22-6.89c4.98-2.37 10.05-4.4 15.21-6.36a144 144 0 0 0 16.1-7.07c3.34-1.68 6.78-3.14 10.22-4.61 8.29-3.59 16.36-7.5 24.37-11.69l2.52-1.32c14.37-7.54 44.8-36.78 59.23-37.8M764 1247.5c1 2 1 2 .14 4.7l-2.62 6.74c-4.1 11.57-6.26 23.67-7.96 35.79q-.47 3.3-.98 6.62a170 170 0 0 0-1.9 22.56l-.06 2.17c.01 2.75.07 4.89 1.47 7.29 9.68 5.72 24.57 4.6 35.44 4.52q3.9-.02 7.8.02c8.94.01 17.05-.57 25.75-2.71 3.65-.87 7.06-1.2 10.8-1.39l3.55-.2 2.57-.11c-4.25 9.12-9.3 17.5-14.7 25.96a858 858 0 0 0-4.85 7.74q-5.69 9.14-11.48 18.2a1495 1495 0 0 0-29.4 47.66l-1.73 2.92A326 326 0 0 0 765 1456.5l-2.69 5.31c-11.42 22.5-19.36 47.3-21.14 72.51-.18 2.28-.44 4.53-.7 6.8-.43 4.18-.54 8.32-.58 12.53l-.04 3.8q-.03 3.9-.02 7.79c-.15 9.23-.15 9.23-2.15 12.26-2.1 1.82-3.84 3-6.68 3v2a114 114 0 0 1-5 3 302 302 0 0 0-5.19 3.75q-5.66 4.16-11.37 8.25l-2.44 1.75c-2 1.25-2 1.25-4 1.25v2a130 130 0 0 1-5 3q-4.22 3.09-8.38 6.26c-2.34 1.55-3.88 2.32-6.62 2.74v2a89 89 0 0 1-5.25 3.56 219 219 0 0 0-16.16 11.65c-2.33 1.61-3.83 2.38-6.59 2.79v2a97 97 0 0 1-5.5 3.75 171 171 0 0 0-17.31 12.63c-2.19 1.62-2.19 1.62-5.19 1.62l-1 3c-2.18 1.5-2.18 1.5-4.87 3-3.17 1.77-5.62 3.4-8.13 6a162 162 0 0 1-4.94 3.63l-2.59 1.85c-2.47 1.52-2.47 1.52-4.72 2.04l-1.75.48-1 3c-2.14 1.46-2.14 1.46-4.81 2.94a38 38 0 0 0-9.19 7.06 205 205 0 0 1-6.12 4.31l-3.47 2.36-1.73 1.18c-3.3 2.26-6.52 4.6-9.75 6.94-1.93 1.21-1.93 1.21-3.93 1.21v2a84 84 0 0 1-5.12 3.5 324 324 0 0 0-16.33 11.35c-4.33 3.15-4.33 3.15-6.55 3.15l-1 3c-2.25 1.54-2.25 1.54-5 3.06-4.9 2.74-4.9 2.74-6 4.94a159 159 0 0 1-5 3l-1 1c-3 .13-3 .13-6 0-1-1-1-1-1.07-2.94.58-8.9 3.43-16.81 6.44-25.12q1.5-4.18 2.97-8.35l.71-2.01a260 260 0 0 0 4.95-15.58c1.98-6.63 4.04-13.2 6.44-19.69 2.27-6.25 4.1-12.57 5.77-19a93 93 0 0 1 4.79-13.31 184 184 0 0 0 2.38-8 447 447 0 0 1 6.96-22.05l3.09-9.2 1.21-3.62q6.1-18.22 11.9-36.54a886 886 0 0 1 5.46-16.59l1.94-5.81 3.32-9.93a595 595 0 0 0 6.74-21.26c3.73-12.44 3.73-12.44 5.44-16.81 1.76-4.54 3.14-9.2 4.58-13.84a624 624 0 0 1 5.88-18 88 88 0 0 0 1.8-6.15c1.41-5.52 1.41-5.52 4.01-7.52a53 53 0 0 1 6.29-2.68c15.78-6.5 29.96-16.07 41.55-28.64 1.45-1.36 1.45-1.36 3.45-1.36l.73-1.71c1.53-2.75 3.39-4.65 5.58-6.91 15.52-16.82 27.38-37.02 38.43-56.93 8.8-15.85 18-31 28.84-45.54q2.84-3.87 5.6-7.79a245 245 0 0 1 11.24-14c2.69-3.22 5.23-6.53 7.77-9.87 3.74-4.93 7.64-9.67 11.81-14.25m-572-491q66.82-.24 133.63-.38h2l43-.08 21.09-.03h2.12q34-.07 67.99-.2 35.92-.13 71.86-.16 21.53 0 43.05-.12 14.75-.07 29.51-.05 8.52.01 17.03-.05 7.8-.07 15.6-.02 2.82 0 5.63-.03c12.47-.18 19.35 1.32 28.49 10.12q1.79 1.47 3.6 2.9a610 610 0 0 1 18.69 16.6c4.24 3.91 8.6 7.69 12.98 11.45l2.23 1.92 2.03 1.75 1.47 1.38v1l-1.7.01c-15.78.2-31.32 1.58-46.99 3.37l-2.88.31q-4.13.46-8.25.96l-2.5.27A38 38 0 0 0 638 811.5c-4.27 8.55.5 23.37 3 32 6.35 18.48 14.96 36.56 27 52l3.76 4.98 3.55 4.68c1.69 2.34 1.69 2.34 1.69 3.34q-2.87.04-5.75.06l-3.23.04c-3.02-.1-3.02-.1-4.92-.58a36 36 0 0 0-6.69-.88c-15.34-1.02-30.28-3.31-45.42-5.96-6.86-1.18-13.74-2.24-20.62-3.3l-4.1-.64q-9.59-1.5-19.18-2.9c-9.94-1.45-19.8-3.2-29.67-5a547 547 0 0 0-23.71-3.75 401 401 0 0 1-16.13-2.57 376 376 0 0 0-66.92-5.84c-8.73-.03-17.1.53-25.66 2.32l-2.38.49a273 273 0 0 0-6.3 1.45l-2.21.52c-7.57 1.85-14.5 3.95-21.29 7.87-2.44.9-3.4.65-5.82-.33q-2.81-1.91-5.5-4l-3.23-2.47-1.65-1.28q-10.35-7.98-21-15.56l-1.73-1.24a188 188 0 0 0-8.3-5.62L323 857.5v-2l-2.06-.69a38 38 0 0 1-9.94-6.31v-2l-1.64-.24c-3.24-1.04-5.42-2.87-8.11-4.95l-1.6-1.23-4.65-3.58a133 133 0 0 0-14.14-9.73c-1.86-1.27-1.86-1.27-3.76-3.19-2.36-2.33-4.82-3.98-7.61-5.77a288 288 0 0 1-16.3-11.43L251 804.5v-2l-1.66-.25c-3.12-1-5.14-2.68-7.72-4.69l-4.87-3.74c-3.58-2.7-7.27-5.28-10.94-7.87-2.53-1.79-5-3.6-7.42-5.55-3.05-2.43-6.3-4.46-9.6-6.53L207 772.5v-2l-1.75-.32c-2.58-.78-4.13-1.9-6.25-3.55l-2-1.56-2-1.57-4-3zm844-610h3a155 155 0 0 1 6.16 17.27 174 174 0 0 0 3.21 9.23 211 211 0 0 1 5.84 19.2 93 93 0 0 0 4.79 13.3q1.21 3.89 2.31 7.81a590 590 0 0 0 8.69 27.19c2.06 6.1 4.08 12.2 5.94 18.38 1.36 4.5 2.87 8.9 4.5 13.3 2.27 6.26 4.1 12.58 5.77 19.02.9 3.4 1.88 6.52 3.28 9.77 2.07 4.83 3.3 9.79 4.62 14.86a96 96 0 0 0 4.89 13.67q1.18 3.82 2.25 7.69a340 340 0 0 0 7.25 22.18 300 300 0 0 1 5.5 17.13c2.04 6.84 4.18 13.6 6.63 20.31 1.76 4.88 3.18 9.65 4.37 14.69l1 2.5c1.07 2.68 1.7 5.37 2.38 8.17.7 2.6 1.51 5.12 2.37 7.66l1.08 3.2 1.17 3.47 5.72 17.09c2.33 6.93 4.6 13.87 6.67 20.88q1.13 3.7 2.42 7.34a356 356 0 0 1 6 20.22c1.4 5.03 3.06 9.7 5.19 14.47q.8 2.4 1.5 4.81l1.5 5.19a439 439 0 0 0 4.81 15.5l1 3.05q1.34 3.86 2.82 7.65c3.56 9.42 5.18 17 3.74 27.16q-.67 4.89-1.24 9.78A443 443 0 0 1 1162 647.5l-.81 3.14c-1.67 6.01-4.24 11.38-7.19 16.86-2-1-2-1-2.97-3.86l-1.1-3.89c-8.02-26.92-22.2-53.1-41.93-73.25l-2.1-2.2c-3.1-3.03-4.92-4.65-9.28-5.3-5.6 2.32-9.31 6.33-13.62 10.5l-4.81 4.19c-11.8 10.7-21.14 22.39-29.83 35.72q-1.7 2.6-3.45 5.18A162 162 0 0 0 1028 668.5h-1c-.39-17.73.16-35.13 1.85-52.78 2.3-24.27 2.34-48.53 2.34-72.88l.02-11.76c.1-28.83-.31-57.37-4.52-85.96l-.33-2.27c-3.56-24.7-9.02-48.52-19.36-71.35l-1.51-3.39c-14.07-31.07-14.07-31.07-23.51-41.94-5.04-6.14-5.04-6.14-4.86-10.69.76-3.12 1.7-5.99 2.88-8.98l1.45-3.86.78-2.06q1.87-5.1 3.64-10.2 2.89-8.2 5.82-16.38 2.33-6.51 4.5-13.1c1.06-3.13 2.19-6.23 3.31-9.34 1.72-4.78 3.28-9.56 4.69-14.44 1.38-4.47 3.03-8.84 4.62-13.25q1.47-4.14 2.69-8.37c1.53-5.3 3.43-10.44 5.31-15.62q1.47-4.18 2.69-8.44c1.47-5.07 3.39-9.94 5.3-14.85a269 269 0 0 0 5.16-15.1c1.7-5.21 3.37-10.19 6.04-14.99m210 1186c2.93 2.85 5 5.43 7 9l2.85 5.01c12.88 22.35 26.38 44.56 42.15 64.99l1.73 2.25 3.34 4.3q2.2 2.8 4.39 5.63c18.88 24.34 39.72 48.41 64.54 66.82l4.44 3.56c5.71 4.44 11.8 8.34 17.85 12.3q3.29 2.2 6.52 4.45a91 91 0 0 0 11.31 6.29q3.14 1.54 6.23 3.2c18.36 9.85 38.94 16.08 59.6 18.7 3.05.5 3.05.5 4.36 2.06q.85 3.05 1.59 6.12a204 204 0 0 0 4.06 13.95q2.82 8.87 5.83 17.67c2.27 6.94 4.3 13.95 6.25 20.98 2.55 9.1 5.36 18.08 8.41 27.03q3.28 9.72 5.87 19.66c1.1 4.14 2.42 8.1 3.97 12.1 1.08 2.93 1.88 5.92 2.71 8.93l2.13 6.75c3.13 9.94 6.05 19.94 9 29.93l.96 3.26 1.7 5.78a346 346 0 0 0 6.14 18.58 62 62 0 0 1 3.07 15.7c-1.8.65-1.8.65-4 1q-3.09-2.4-6-5l-3-1q-1.51-1.49-3-3a141 141 0 0 0-4.5-3c-4.18-2.67-4.18-2.67-5.87-4.4-2.46-2.42-5.3-4.3-8.13-6.29l-3.76-2.66-5.47-3.86-4.64-3.29-2.72-1.9-1.91-1.6v-2l-1.62-.22c-3.34-1.1-5.62-3.06-8.38-5.22-3.26-2.54-6.28-4.78-10-6.56l-1.75-1.81c-2.54-2.47-5.2-4.08-8.25-5.85-2-1.34-2-1.34-3.86-3.24-3.45-3.39-7.59-5.71-11.66-8.3l-2.48-1.8v-2l-2.06-.69a38 38 0 0 1-9.94-6.31v-2l-1.62-.22c-3.34-1.1-5.62-3.06-8.38-5.22-3.26-2.54-6.28-4.78-10-6.56l-1.75-1.81c-2.54-2.47-5.2-4.08-8.25-5.85-2-1.34-2-1.34-3.86-3.24-3.45-3.39-7.59-5.71-11.66-8.3l-2.48-1.8v-2l-2.06-.69a38 38 0 0 1-9.94-6.31v-2l-1.62-.22c-3.34-1.1-5.62-3.06-8.38-5.22a58 58 0 0 0-10-6.56l-3-3c-2.35-1.6-4.74-3.1-7.14-4.6l-1.86-1.4v-2l-2.06-.69a38 38 0 0 1-9.94-6.31v-2l-1.62-.22c-3.34-1.1-5.62-3.06-8.38-5.22-3.26-2.54-6.28-4.78-10-6.56l-1.75-1.81c-2.54-2.47-5.2-4.08-8.25-5.85-2-1.34-2-1.34-3.86-3.24-3.45-3.39-7.59-5.71-11.66-8.3l-2.48-1.8v-2l-2.06-.69a38 38 0 0 1-9.94-6.31v-2l-1.66-.25c-3.67-1.17-6.34-3.57-9.35-5.91a115 115 0 0 0-8.38-6.06c-8.31-5.52-11.86-11.15-15.65-20.28-1.93-4.61-4.36-8.8-6.96-13.06a233 233 0 0 1-9.96-18.3 412 412 0 0 0-6.65-12.96 452 452 0 0 1-22.64-48.77 226 226 0 0 0-5.65-13c-5.1-11.16-5.1-11.16-5.1-14.41a20 20 0 0 1 7.06 5.06c2.9 3 5.94 5.64 9.19 8.25a221 221 0 0 1 11.25 9.69c5.32 4.9 10.86 9.48 16.5 14l2.63 2.23c2.37 1.77 2.37 1.77 5.43 2.27 3.7-.63 4.58-1.62 6.94-4.5 7.06-18.27 7.76-39.66 9.69-58.9q.29-2.86.6-5.68c.76-7 1.03-14 1.27-21.05l.13-3.62z"/><path fill="#fdec75" d="m992.75 927.31 2.92-.03c10.71-.03 19.96 2.17 28.33 9.22l2.31 1.37a63 63 0 0 1 8.34 6.33c6.15 3.4 13.9 2.3 20.7 2.13 19.41-.4 38.37.5 53.17 14.56 10.17 10.7 11.84 19.84 11.63 34.43-.35 12.39-3.47 22.84-8.15 34.18h-2l-.75 2c-3.12 7.5-7.02 13.8-11.81 20.31l-1.75 2.42c-5.14 7.05-5.14 7.05-7.69 9.27h-2l-.81 1.81a16 16 0 0 1-4.19 5.2h-2v2c-6.21 5.97-13.4 10.06-21 14q-2.38 1.36-4.75 2.74c-13.81 7.63-29.5 7.4-44.25 3.25a97 97 0 0 1-10-4l-2.09-.91c-14.9-7.3-28.45-22.2-38.32-35.16-1.59-1.93-1.59-1.93-3.59-2.93a137 137 0 0 1-3.75-7.13l-1.07-2.15a240 240 0 0 1-9.18-21.72l-1.1-2.93c-5.65-19.32-3.2-43.46 6.04-61.26q1.47-2.44 3.06-4.8l1.6-2.45c2.84-4.04 2.84-4.04 4.4-5.56h3v-2c10.31-8.68 21.61-12.18 34.75-12.19"/><path fill="#ad9e8e" d="M114.27 713.35h4.77q4.11-.03 8.23-.02l5.92-.02 16.36-.04 14-.04 52.2-.11a108085 108085 0 0 1 97.95-.13h2.17q34.82-.05 69.64-.15 35.79-.12 71.59-.13h12.13l30.03-.09q17.1-.06 34.2-.05 8.7.02 17.43-.04a1291 1291 0 0 1 15.99 0l5.76-.03c12.27-.15 21.08 1.6 31.65 7.98 2.73 1.63 5.54 3.1 8.35 4.58l6.17 3.44 3.12 1.71c8.22 4.6 16.45 9.52 23.07 16.29l-155.5.04h-2.33l-49.98.01h-26.97l-160.38.04H236.1l-72.95.02-37.94.01-18.1.01c-5.88-.02-5.88-.02-8.11-1.13 1.44-7 3.37-13.7 5.56-20.5l.96-3.03c2.75-8.58 2.75-8.58 8.75-8.62"/><path fill="#ab9d8d" d="M1944 723.5c2.56 7 5.07 14.03 7.38 21.13l1.02 3.13c.63 2.9.65 4.02-.4 6.74-1.66 1.53-1.66 1.53-3.84 3l-2.44 1.67-2.66 1.77-5.51 3.77-2.83 1.92a533 533 0 0 0-11.9 8.5q-8.62 6.25-17.32 12.37a2131 2131 0 0 0-24.23 17.36l-13.52 9.76-11.29 8.16q-11.97 8.69-24.07 17.2-7.73 5.46-15.39 11.02-8.7 6.31-17.5 12.5a2131 2131 0 0 0-24.23 17.36l-13.52 9.76-11.29 8.16q-11.97 8.69-24.07 17.2a2049 2049 0 0 0-22.1 15.87 3719 3719 0 0 1-40.4 28.96 2430 2430 0 0 0-26.62 19.05L1626 988l-4.44 3.21-9.55 6.9-2.48 1.78-4.7 3.38-2.13 1.55-1.88 1.35c-1.82 1.33-1.82 1.33-3.8 3.01-2.42 1.58-3.35 1.56-6.17 1.1l-2.39-.36-2.46-.42-4.73-.72-2.41-.38a244 244 0 0 0-27.86-2.9c4.03-4.3 8.44-7.66 13.25-11.06l2.4-1.72q8.94-6.38 17.95-12.7 8.99-6.34 17.88-12.8 7.58-5.49 15.2-10.92 7.09-5.06 14.13-10.17 8.8-6.37 17.69-12.63 12.18-8.6 24.23-17.36l13.52-9.76 11.29-8.16q11.97-8.69 24.07-17.2 7.73-5.46 15.39-11.02 8.7-6.31 17.5-12.5 10.04-7.07 19.98-14.28 7.58-5.49 15.2-10.92 7.09-5.06 14.13-10.17 9.84-7.13 19.79-14.1 8.98-6.35 17.88-12.81 7.58-5.49 15.2-10.92 7.09-5.06 14.13-10.17 8.77-6.35 17.63-12.57c6.86-4.82 13.63-9.77 20.38-14.76q11.55-8.54 23.23-16.9 1.98-1.43 3.95-2.88c4.79-3.52 4.79-3.52 7-3.52"/><path fill="#ab9c8d" d="m1057 69.5 3 1a67 67 0 0 1 2.34 6.97l1.3 4.4.68 2.32q1.64 5.5 3.4 10.97l1.38 4.4 1.4 4.44 2.78 8.84.69 2.18 3.38 10.82c3.02 9.7 6.17 19.33 9.55 28.91 5.17 14.68 5.17 14.68 7.04 21.5a359 359 0 0 0 6.12 19.44c4.23 12.53 8.22 25.13 12.13 37.77a388 388 0 0 0 6.85 20.36c1.46 4.08 2.7 8.22 3.95 12.37 1.66 5.44 3.4 10.84 5.13 16.25l1.16 3.6c3.13 9.72 6.37 19.4 9.62 29.08a544 544 0 0 1 7.42 23.63q2.02 6.98 4.37 13.88a1967 1967 0 0 1 8.77 26.7q5.22 16.21 10.2 32.5 3.9 12.51 8.09 24.92c10.61 31.67 10.61 31.67 7.88 48.3a881 881 0 0 0-4.26 30.7l-.97 7.75-.6 4.75q-.84 6.63-1.8 13.25a29 29 0 0 1-3.73-7.8l-.99-2.93-1.03-3.14-1.07-3.23q-3.9-11.88-7.19-23.95c-1.18-4.27-2.5-8.38-4.1-12.52-1.93-5.3-3.52-10.72-5.19-16.1a1607 1607 0 0 0-12.39-38.33 836 836 0 0 1-10.46-33.31 945 945 0 0 0-16.05-49.57c-2.68-7.65-5-15.37-7.23-23.16a758 758 0 0 0-9.77-30.54c-2.7-8.1-5.3-16.22-7.9-24.35q-2.8-8.84-5.78-17.63a735 735 0 0 1-5.54-17.17l-.65-2.1-3.24-10.48a465 465 0 0 0-7.58-22.58 268 268 0 0 1-4.03-12.56q-1.85-6.04-3.77-12.05-2.79-8.8-5.52-17.64l-1.17-3.78-2.35-7.63c-3.18-10.31-3.18-10.31-5-15.32q-.35-1.02-.73-2.05-.9-2.49-1.86-4.94c-1.75-8.1 1.25-16.2 3.5-23.95l.94-3.28q4.32-15 8.88-29.91"/><path fill="#8bb857" d="M1096 594.5c2.5 1.2 4.68 2.45 7 4l1 3 2.31 2.31c6.69 6.69 6.69 6.69 6.69 10.69h2l1.1 2.05a297 297 0 0 0 9.5 16.47c3 5.32 5.08 11.09 7.21 16.8l.77 2.04a524 524 0 0 1 6.5 18.7c4.86 14.71 4.86 14.71 1.83 21.33-1.57 2.58-3.24 5.1-4.91 7.61q-1.74 3-3.44 6c-2.68 4.61-5.55 9-8.66 13.34a313 313 0 0 0-4.27 6.14l-1.23 1.8-2.38 3.52c-2.8 4.09-2.8 4.09-5.02 5.2l-1 3q-2.44 2.56-5 5l-9.5 9.61-3 3.04-4.37 4.42-2.62 2.65a37 37 0 0 1-7.51 5.28q.17-2.44.38-4.87l.2-2.75c.45-3.64 1.17-7.18 1.9-10.77.8-4.08 1.39-8.18 1.96-12.3l.37-2.69 1.19-8.62.43-3.08 1.66-12.1c.7-5.32 1.2-10.45.91-15.82-1.69-2.06-1.69-2.06-4-3-2.56-.12-2.56-.12-5 1-2.52 4.89-3.43 8.91-3.87 14.44a410 410 0 0 1-3.57 26.37l-1.33 8.35-.32 2.04q-1.18 7.47-2.23 14.96l-.75 5.2a90 90 0 0 0-1.06 9.97c-.3 4.75-1.29 7.35-4.8 10.56a132 132 0 0 1-11.07 8.11l-2.93 2.02q-3 2.06-6.07 3.98c-2-1-2-1-2.96-3.78a299 299 0 0 1-6.04-29.22l-.39-2.44q-1.37-8.77-2.61-17.56l-.33-2.28q-.44-3.17-.86-6.35l-.48-3.6c-.76-8.7-.1-16.38 1.86-24.9l.68-3.03a244 244 0 0 1 7.13-24.84l1.06-3.1a190 190 0 0 1 6.94-16.9l.86-1.85 6.14-13.15h2q.45-1.42.94-2.87c1.06-3.13 1.06-3.13 2.06-5.13h2l.27-1.63c.98-3.17 2.63-5.55 4.48-8.3l2.05-3.1a61 61 0 0 1 7.2-7.97c7.44-7.31 7.44-7.31 10.5-11.06a73 73 0 0 1 8.73-8.42c1.77-1.52 1.77-1.52 3.77-3.52"/><path fill="#ab9d8d" d="M591 1441.5a225 225 0 0 1-5.44 20.56l-.9 3c-1.5 4.9-3.1 9.74-4.94 14.53-1.3 3.45-2.44 6.97-3.6 10.47l-1.57 4.75-.79 2.38a4198 4198 0 0 1-6.6 19.78q-2.1 6.3-4.03 12.65a858 858 0 0 1-7.97 24.37q-2.08 6.2-3.98 12.46a779 779 0 0 1-6.55 20.17 1227 1227 0 0 0-12.16 38c-3.62 12.05-7.48 24-11.49 35.92a1482 1482 0 0 0-11.54 35.94 962 962 0 0 1-7.24 22.42q-2.66 8.03-5.2 16.1c-2.2 6.91-4.42 13.82-6.75 20.69q-2.25 6.66-4.12 13.43a405 405 0 0 1-6.55 20.68 421 421 0 0 0-5.66 18 62 62 0 0 1-3.92 8.7 145 145 0 0 1-16.31-10.62l-2.46-1.78c-5.95-4.32-5.95-4.32-8.23-6.6-.65-6.1 1.07-10.78 3.19-16.37l1.96-5.42.97-2.7c1.42-4.05 2.58-8.16 3.75-12.3a735 735 0 0 1 7.13-22.84l.63-1.96q3.13-9.68 6.35-19.31a461 461 0 0 0 5.25-16.51q2.53-8.44 5.14-16.84l1.14-3.7a476 476 0 0 1 7.28-21.6c1.99-5.66 3.72-11.4 5.46-17.14a1479 1479 0 0 1 12.65-39.03l5.48-16.34.97-2.9q2.6-7.79 4.93-15.67c1.11-3.67 2.36-7.3 3.6-10.93q3-8.91 5.62-17.94a432 432 0 0 1 10.56-32.06c1.78-4.8 3.18-9.68 4.58-14.6 2.9-9.97 6.3-19.78 9.61-29.62l.73-2.14 1.36-4.03c1-3 1.96-5.97 2.66-9.05l2.08-.24 9.42-1.13 3.27-.39c7.25-.88 14.98-3.7 22.23-3.24"/><path fill="#e3e0ca" d="M443 562.5c1.83.1 1.83.1 4 1 1.48 2.87 1.48 2.87 2.75 6.44l1.3 3.56c.95 3 .95 3 .95 5h2l1.66 3.58a50 50 0 0 0 7.78 11.1q.76.9 1.57 1.8A313 313 0 0 0 483 613.5l2.07 2.02c6.31 5.85 13.73 10.32 20.93 14.98l3.03 1.98a178 178 0 0 0 16.85 9.66c2.12 1.36 2.12 1.36 3.12 4.36l2.19.31c3.13.77 5.06 2.01 7.81 3.69q3.83 2.06 7.69 4.06a759 759 0 0 1 21.33 11.67c3.6 2.02 7.11 3.8 10.98 5.27q2.85 1.41 5.69 2.88c4.57 2.3 9.16 4.36 13.96 6.16 3.79 1.55 7.38 3.45 11 5.36a142 142 0 0 0 17.35 7.6 125 125 0 0 1 25.65 12.6c3.15 1.87 6.44 3.43 9.73 5.02 12.07 5.92 23.9 12.68 34.21 21.36a181 181 0 0 0 7.06 5.58 318 318 0 0 1 35.65 31.71 324 324 0 0 0 4.6 4.57c1.97 2.02 2.86 3.68 4.1 6.16l3 1c1.76 1.97 1.76 1.97 3.69 4.5 3.24 4.19 6.63 8.14 10.25 12a98 98 0 0 1 6.4 9q2.55 3.85 5.18 7.66l1.83 2.7 1.9 2.76 5.92 8.7 3.43 5.03 4.09 6.02 1.16 1.71a90 90 0 0 1 6.17 10.92c1.52 3.1 3.16 6.14 4.8 9.19l1.03 1.94 5.08 9.45 3.52 6.58c1.55 2.84 1.55 2.84 2.9 4.9 4.05 6.42 2.65 13.74 1.65 20.94l-1 3-6 1c-2.56-4.1-4.7-8.35-6.81-12.69-7.86-15.83-17.7-29.72-29.31-43a286 286 0 0 1-7.5-9 295 295 0 0 0-11.93-13.58c-2.33-2.6-4.52-5.25-6.7-7.98a252 252 0 0 0-31.39-32.67q-3.59-3.19-7.1-6.5a190 190 0 0 0-15.41-13.14c-2.5-1.95-4.64-4.18-6.85-6.44-9.5-8.88-20.36-15.99-31.1-23.26a247 247 0 0 1-11.06-7.88 117 117 0 0 0-10.59-7.05c-5.92-3.55-5.92-3.55-8.33-5.42-2.2-1.6-4.39-2.4-6.92-3.39a149 149 0 0 1-4.94-2.94A136 136 0 0 0 606 708.5a642 642 0 0 1-6.56-3.72c-6.09-3.2-12.6-5.56-19.01-8.03a51 51 0 0 1-7.95-3.78c-3.05-1.8-6.13-2.84-9.48-3.97-6.45-2.17-6.45-2.17-9.47-3.98-3.2-1.92-6.58-3.1-10.1-4.33a146 146 0 0 1-17.85-7.9 48 48 0 0 0-6.4-2.66c-6.73-2.4-12.96-6.14-19.18-9.63l-3.37-1.88c-25.13-14.72-43.67-37.7-51.14-66.05-2.42-10.05-2.86-19.77-2.49-30.07"/><path fill="#ab9d8d" d="M1247 1546.5a52 52 0 0 1 7.65 4.47l2.08 1.46 2.2 1.57 2.3 1.63q6.84 4.85 13.46 10c6 4.67 12.16 9.1 18.38 13.5a2107 2107 0 0 1 47 34.43 1065 1065 0 0 0 19 13.94q9.45 6.82 18.82 13.77 8.1 5.98 16.3 11.86 9.6 6.9 19.06 14.07 7.06 5.29 14.26 10.38a955 955 0 0 1 14.74 10.73q9.33 6.9 18.75 13.69c10.2 7.34 20.3 14.8 30.4 22.27a2621 2621 0 0 0 32.26 23.54l4.9 3.52 7.75 5.6 2.41 1.73c6.99 5.09 11.27 9.39 13.72 17.96l.6 2.06q.65 2.21 1.27 4.42 1.51 5.2 3.08 10.37l1.55 5.2a214 214 0 0 0 3.24 10.17c.82 2.66.82 2.66.82 6.66a47 47 0 0 1-7.66-4.55l-2.12-1.54-2.28-1.66-2.4-1.74q-9.74-7.1-19.41-14.27-8.25-6.07-16.57-12.05a968 968 0 0 1-17.33-12.76 1952 1952 0 0 0-33.95-24.89 841 841 0 0 1-15.12-11.18c-3.88-2.9-7.8-5.72-11.72-8.55a2579 2579 0 0 1-26.03-19.03l-19.2-14.15-4.27-3.15q-9.88-7.3-19.88-14.42-7.49-5.33-14.81-10.87a922 922 0 0 0-17.06-12.57 2910 2910 0 0 1-30.59-22.4 2599 2599 0 0 0-28.46-20.78l-6.14-4.44-2.26-1.64-2.2-1.61-1.98-1.45c-2.97-2.48-2.89-5.31-3.37-8.99-1.74-11.54-5-22.38-9.26-33.2-1.93-4.93-1.93-4.93-1.93-7.11"/><path fill="#e3e0ca" d="M874.05 1156.47A70 70 0 0 1 887 1166.5c.12 3.5.12 3.5 0 7-1.54 1.54-3.17 1.4-5.3 1.68l-2.7.37-2.88.39-5.8.81-2.8.4c-7.65 1.07-14.53 2.49-21.72 5.35a86 86 0 0 1-8.75 2.47c-24.14 6.22-47.76 20.87-66.05 37.53q-1 .88-2 1.8c-4.32 4.06-7.84 8.74-11.36 13.5a84 84 0 0 1-8.64 9.7q-2.54 2.91-5 5.87l-1.32 1.59a123 123 0 0 0-6.68 8.79l-2 2.75h-2l-.79 1.7a53 53 0 0 1-4.59 6.99c-27.48 37.46-27.48 37.46-35.6 55.26-1.02 2.05-1.02 2.05-3.02 4.05l-2 5q-1.78 3.38-3.69 6.69l-1.08 1.88A182 182 0 0 1 671 1363.5l-2.94 4.2c-6.49 9.2-13.16 17.75-21.06 25.8l-1.58 1.64c-14.96 15.5-30.51 27.4-51.42 33.36l-2.93.84c-16.73 4.6-32.44 5.95-49.75 5.29q-4.58-.17-9.15-.24a150 150 0 0 1-34.17-4.89l-3.27-.82c-4.27-1.19-7.24-2.37-10.73-5.18l1-3 3.17-.14c38.67-1.69 38.67-1.69 54.83-4.86l3-.56q4.88-.91 9.75-1.88l3.03-.58c5.2-1.08 9.67-2.43 14.34-4.97a67 67 0 0 1 5.81-2.72l1.95-.83 2-.84c5.57-2.39 10.8-4.98 15.92-8.25a72 72 0 0 1 6.39-3.43c18.37-10.2 34.69-29.1 46.81-45.94l4.62-6.13q6.26-8.37 12.38-16.87.75-1.01 1.5-2.07a96 96 0 0 0 4.9-7.28c2.34-3.88 4.88-7.6 7.4-11.36a492 492 0 0 0 4.43-6.74l2.14-3.3 1.97-3.05 1.66-2.2h2l.36-1.77a20 20 0 0 1 2.83-5.92l1.37-2.13 1.44-2.18 1.31-2.03a371 371 0 0 1 22.42-30.62c3.45-4.26 6.66-8.62 9.67-13.2 1.97-2.65 4.24-4.83 6.6-7.15l3.16-3.45c6.14-6.75 12.19-13.06 19.44-18.62 2.4-1.93 2.4-1.93 4.83-4.37 13.37-13.32 31.5-24.92 49.57-30.56l4.18-1.44c9.2-3.1 17.92-5.32 27.6-6.24 20.63-2.07 20.63-2.07 24.27-.35"/><path fill="#8bb857" d="M1362 882.5a41 41 0 0 1 5 3l3.38 1.19c6.88 2.47 13.22 6.3 19.62 9.81l3.34 1.82 5.59 3.05q2.01 1.1 4.07 2.13v2l2.54.74a64 64 0 0 1 10.84 5.38l1.94 1.13 4.68 2.75v2l2.25.88c2.32.94 4.52 1.99 6.75 3.12-.46 6.48-1.62 11.39-4.5 17.19l-1.09 2.22c-8.98 18-21.92 33.44-35.81 47.88q-2.32 2.4-4.48 4.95c-1.7 1.84-2.77 2.9-5.12 3.76-4.27-.28-8-1.52-12-3l-2.33-.83c-2.59-1-5.12-2.08-7.67-3.17l-4.6-1.9-5.09-2.1-2.45-1a106 106 0 0 1-13.86-7l-2.73-1.63-4.94-3a89 89 0 0 0-6.33-3.37v-2l-2.06-.69a38 38 0 0 1-9.94-6.31v-2l-1.64-.68c-3.08-1.72-5.54-4-8.11-6.38l-1.54-1.4a164 164 0 0 1-3.71-3.54v-1l3.77-.3q17.93-1.47 35.81-3.38l4.82-.5 6.85-.72 2.06-.2c4.75-.54 8.41-1.87 12.69-3.9.48-6.4.48-6.4-1.43-8.8-4.07-1.9-7.63-.8-11.94-.01l-5.7.91-2.98.47c-4.67.68-9.37 1.1-14.08 1.5-6.18.51-12.34 1.07-18.5 1.78q-5.7.63-11.37 1.15l-3.86.37c-8.03.45-8.03.45-11.27-1.94a31 31 0 0 1-3.87-5.43c1.32-3.07 2.54-4.7 5.31-6.56l1.74-1.2q3.44-2.17 6.95-4.24l6.13-3.81a333 333 0 0 1 28.3-15.39 139 139 0 0 0 10.57-5.8q2.44-1.09 4.9-2.1c3.58-1.53 7.11-3.18 10.65-4.81 5.2-2.3 8.95-2.2 14.45-1.09m-481 305c-4.98 4.17-10.38 7.64-15.81 11.18l-6 3.94-1.96 1.28a54 54 0 0 0-9.23 7.6q-2.88 2.2-5.81 4.31c-11.36 8.57-21.37 18.59-29.22 30.47q-1.44 2.15-2.97 4.22h-2l-.75 2.06a86 86 0 0 1-5.25 9.94h-2l-.19 3.88-.1 2.17.29 1.95c3.5 2.34 4.88 2.67 9 2 2.25-3 2.25-3 4-6h2l.25-1.65c2.84-8.9 12.45-17.73 18.75-24.35l1.55-1.63c8.54-8.94 17.41-17.63 28.13-23.95a25 25 0 0 0 5.32-4.42q2.43-1.86 4.94-3.62l2.59-1.86a16 16 0 0 1 6.47-2.52c.6 17.61-5.2 35.49-10.17 52.18q-1.12 3.8-2.18 7.61a235 235 0 0 1-13.57 36.88 115 115 0 0 0-3.83 9.43c-1.59 3.84-3.1 6.28-6.87 8.15-25.27 9.28-55.98 11.64-82.38 6.75-1.2-3.58-.82-5.7-.33-9.43l.52-3.91.28-2.05.8-6.04c.96-7.14 2.19-14.06 4.07-21.02a87 87 0 0 0 1.53-7.36c3.8-19.4 12.68-42.48 26.13-57.19h2v-2h4v-2l9.06-4.81 2.57-1.37c8.85-4.68 17.97-8.36 27.37-11.82l2.89-1.07c7.47-2.53 15.03-3.92 22.8-5.24l3.26-.56 3.06-.5 2.77-.44c2.22-.19 2.22-.19 4.22.81"/><path fill="#8ab857" d="M1150 1213.5c15.18 8.68 28.95 21.77 39 36l2 1q1.53 2.48 3 5a309 309 0 0 0 4.19 5.63q6.5 8.6 12.81 17.37l2.72 3.73 2.78 3.83 1.35 1.85c3.15 4.36 3.15 4.36 3.15 6.59h2a130 130 0 0 1 3 5l2.56 3.05c3.23 4.5 3.22 8.73 3.25 14.14l.07 2.94q.1 4.43.12 8.87l.08 4.94q.07 7.53-.08 15.06l-.05 3.2c-.28 13.77-1.12 27.09-3.59 40.64-.82 4.88-1.3 9.82-1.83 14.74a47 47 0 0 1-2.53 9.42c-4.52-1.42-6.7-3.66-10-7q-3.46-3.08-7-6.06l-1.83-1.57a253 253 0 0 0-7.8-6.43 94 94 0 0 1-7.37-6.94 662 662 0 0 0-6.81-6.37l-1.87-1.74c-3.82-3.54-7.67-7-11.67-10.33-4.72-4.47-6.62-8.61-8.28-14.75q-.3-1.12-.64-2.28a139 139 0 0 1-3.27-14.35c-.46-2.18-.46-2.18-1.42-5.06-3.02-9.06-4.4-18.75-5.95-28.17a84 84 0 0 0-2.05-9.29c-6.03-21.2-5.52-42.84-5.04-64.66a41 41 0 0 1 7 12l1.88 4.69 1.03 2.61q1.08 2.67 2.21 5.3a319 319 0 0 1 8.29 21.97 353 353 0 0 0 5.28 14.37c3.12 8 5.84 16.1 7.37 24.56.7 3.7 1.47 6.55 3.94 9.5 2.43 1.17 3.57 1.1 6.19.5 1.81-1.5 1.81-1.5 2.56-4.54.3-4.74-.61-8.28-2-12.77l-.7-2.4-1.41-4.7-1.54-5.2a149 149 0 0 0-6.6-18.33c-1.08-2.57-2-5.02-2.85-7.66a244 244 0 0 0-5.59-14.9l-1.01-2.54a433 433 0 0 0-7.05-16.46l-1.87-4.25c-2.24-5.05-4.6-10.04-6.96-15.03-1.17-2.72-1.17-2.72-1.17-4.72"/><path fill="#ab9d8d" d="m742 1585.5.77 3.59 1.04 4.79c.1.4.1.4.55 2.49a129 129 0 0 0 4.22 15.19c.52 2.4.25 3.63-.58 5.94-1.48 1.44-1.48 1.44-3.4 2.78l-2.17 1.53-2.37 1.63-4.96 3.49-2.57 1.8q-5.83 4.11-11.6 8.33-9.72 7.04-19.54 13.92-7.73 5.46-15.39 11.02-8.7 6.31-17.5 12.5a2127 2127 0 0 0-24.22 17.35l-11.53 8.34-2.28 1.65q-7.56 5.44-15.15 10.86-7.09 5.06-14.13 10.17-8.8 6.38-17.69 12.63a2131 2131 0 0 0-24.23 17.36l-13.52 9.76-11.28 8.17q-12.06 8.74-24.25 17.3-8.42 5.94-16.66 12.11c-4.45 3.3-4.45 3.3-5.56 3.3.57-4.9 1.62-9.23 3.25-13.87 1.7-4.9 3.27-9.8 4.68-14.8q1.5-5.17 3.07-10.33l.75-2.72c2.64-7.77 9.82-11.79 16.25-16.28l3.37-2.43q5.29-3.81 10.63-7.57l1.98-1.4 2.05-1.44q2.1-1.5 4.22-2.97l2.14-1.51q9.09-6.43 18.09-12.96 7.58-5.49 15.2-10.92 7.09-5.06 14.13-10.17 9.84-7.12 19.79-14.1 8.99-6.35 17.88-12.82 7.58-5.48 15.2-10.9 7.09-5.08 14.13-10.18 9.84-7.12 19.79-14.1 8.99-6.35 17.88-12.82 7.57-5.47 15.18-10.9 4.95-3.53 9.9-7.1l2.38-1.74 4.58-3.33q5.64-4.1 11.4-8.03l2.22-1.52c1.86-1.09 1.86-1.09 3.86-1.09m782-49 .66 2.21a707 707 0 0 0 6.34 19.79c3.43 10.23 6.74 20.44 9.2 30.95 1.08 4.09 2.44 8.05 3.8 12.05l1.46 4.36.73 2.17a940 940 0 0 1 9.97 31.68l1.56 5.22q2.3 7.68 4.72 15.32a841 841 0 0 1 5.75 19.19q4.26 14.68 8.68 29.31l.65 2.13q4.37 14.42 9.04 28.74a1163 1163 0 0 1 12.5 41.62q1.29 4.41 2.7 8.78c2 6.82 2 6.82 1.24 10.48a38 38 0 0 1-5.87 4.94l-1.79 1.29-3.6 2.56q-2.37 1.66-4.69 3.37c-6.68 4.86-6.68 4.86-11.05 5.84l-.55-1.92c-6.08-21.24-6.08-21.24-9.51-31.27a346 346 0 0 1-5.69-18.37q-3.7-13.12-7.66-26.14l-1.28-4.26a703 703 0 0 0-6.92-21.87q-3-8.92-5.52-17.98c-5.16-18.43-5.16-18.43-6.9-22.75-1.48-3.73-2.46-7.58-3.53-11.44-3.52-12.48-7.39-24.85-11.26-37.23l-3.48-11.2a2827 2827 0 0 0-10.89-34.57 795 795 0 0 1-9.21-30.86q-1.28-4.58-2.6-9.14l1.85-.17 11.25-1.03 2.82-.26 2.59-.24c2.49-.3 2.49-.3 5.07-.83 3.16-.61 6.2-.53 9.42-.47"/><path fill="#ad9e8e" d="m1686.51 711.8 8.1-.01q8.7 0 17.4.12 12.58.18 25.15.18 20.4.07 40.81.28a7073 7073 0 0 0 54.37.38q50.82.23 101.66.75c-2.95 2.99-5.77 5.72-9.23 8.1l-2.4 1.66-2.56 1.74-8.08 5.6a911 911 0 0 0-15.17 10.9l-2.13 1.55-1.87 1.37c-2.77 1.92-4.49 2.2-7.82 2.2h-27.16l-16.39-.01-23.7-.02a70393 70393 0 0 1-75.8-.03h-2.32l-11.55-.01-95.82-.05 1.25-1.45 1.64-1.91 1.62-1.9q1.67-1.96 3.32-3.95l1.42-1.73 1.45-1.77c1.3-1.29 1.3-1.29 3.3-1.29l.72-1.52 1.28-2.48.86-1.7c8.75-16.24 20.71-15.37 37.65-15"/><path fill="#e1dec8" d="M1287 353.5v3a69 69 0 0 1-5.75 4.56l-1.63 1.21a42 42 0 0 1-6.95 4.32c-1.67.91-1.67.91-2.67 3.91-1.94 2.19-1.94 2.19-4 4h-2l-.81 1.8a24 24 0 0 1-4.19 5.51c-8.65 9.7-15.11 21.18-21 32.69l-1.33 2.43c-3.15 5.93-5.38 12.08-7.53 18.42-1.52 4.49-3.24 8.8-5.14 13.15-4.21 11.06-6.78 22.73-9.15 34.3a159 159 0 0 1-2.69 9.97 153 153 0 0 0-5.17 26.12l-.31 2.65-.26 2.32c-.42 2.64-.42 2.64-1.39 6.4a94 94 0 0 0-2.18 12.9l-.3 2.5-.92 8.03-.67 5.61q-1.61 13.83-3.07 27.67l-.26 2.5-1.2 11.68a224 224 0 0 1-3.69 23.8q-1.04 5-1.92 10.03c-2.24 12.47-4.92 24.48-9.1 36.45q-.74 2.15-1.43 4.31a92 92 0 0 1-6.23 14.82l-1.01 1.99-2.03 3.96q-1.54 3-3.03 6.02c-4.49 8.99-9.02 17.93-14.76 26.2-1.23 1.77-1.23 1.77-2.67 4.27-6.8 10.88-15.86 20.78-24.52 30.21-2.04 2.29-2.04 2.29-4.18 5.08l-1.86 2.21h-2l-1 3c-1.94 2.19-1.94 2.19-4 4h-2l-1 3c-1.5 1.54-1.5 1.54-3.44 3.19l-2.16 1.84q-5.09 4.16-10.3 8.17c-2.1 1.8-2.1 1.8-4.1 4.8a294 294 0 0 1-5 3c-2.3 1.71-4.52 3.51-6.75 5.31-19.8 15.74-19.8 15.74-31.25 16.69-2.4-4.21-3.65-7.14-3-12 2.13-2.12 2.13-2.12 5-4l3.06-2.06 2.94-1.94q2.01-1.49 4-3c4.07-3.08 8.22-6.03 12.39-8.97a78 78 0 0 0 7.61-7.03q3.24-2.86 6.56-5.62c27.63-23.55 48.8-50.83 66.42-82.55q1.68-3.01 3.4-6.01l2.43-4.26 1.13-1.97c2.32-4.1 4.25-8.24 6.06-12.59l2.38-5.06c4.07-8.99 7.59-18.05 9.1-27.83a172 172 0 0 1 1.88-9.27c6.3-28.5 8.61-57.64 11.27-86.65.7-7.79 1.46-15.47 2.87-23.17.76-4.56 1.24-9.15 1.75-13.74q.7-6.2 1.81-12.34a100 100 0 0 0 1.32-13.19c1.93-36.76 15.15-73 39.62-100.75l1.82-2.1c9.5-10.29 33.7-28.29 48.18-23.9"/><path fill="#8bb857" d="M708.25 816.31h2.72q3.87 0 7.73.02h2.36c8.77.08 8.77.08 11.55 2.67l1.58 1.94q4.06 4.86 8.31 9.56l4.5 5 1.67 1.85c4.7 5.28 9.12 10.79 13.56 16.29a290 290 0 0 0 8.64 10.3C781 875.34 781 875.34 781 878.5h2a49 49 0 0 1 3 5l1.9 3.27C798 904.3 798 904.3 798 908.5l-1.48-1.58a137 137 0 0 0-17-14.79q-2.3-1.77-4.52-3.63v-2l-1.71-.3c-2.77-.85-4.58-2.17-6.91-3.89a166 166 0 0 0-13-8.4 202 202 0 0 1-6.57-4.1 65 65 0 0 0-10.81-5.3l-2.55-1.05c-10.14-4.1-10.14-4.1-15.64-4.02l-2.73.02-2.08.04c-1.25 6.62-1.25 6.62 1 10a99 99 0 0 0 7 2.06c9.1 2.58 16.9 6.96 25 11.75q4.48 2.64 9 5.2v1.99l1.6.22c3.36 1.1 5.89 3.1 8.65 5.22l1.68 1.23a85 85 0 0 1 4.07 3.33v2l1.69.19c3.8 1.33 6.52 4.23 8.31 7.81-35.6 1.24-35.6 1.24-45.68 1.05-3.8-.07-7.6 0-11.4.12-26.5.7-26.5.7-32.41-3.92-2.9-3.04-4.72-6.46-6.51-10.25-3.63-5.82-3.63-5.82-6-7a132 132 0 0 1-3-5l-3.31-5.19c-11.53-18.08-21.9-36.87-22.69-58.8 18.86-5.53 38.78-5.2 58.25-5.2"/><path fill="#e2dfc9" d="m1133 1205.5-.21 2.02c-.66 6.7-.97 13.32-1.03 20.04l-.03 3.1a1899 1899 0 0 0-.05 13.22c-.01 19.99 1.21 38.77 6.64 58.1.9 3.3 1.49 6.64 2.06 10.02a232 232 0 0 0 4.78 20.56 232 232 0 0 1 3.4 14.25 245 245 0 0 0 5.44 20.69l.86 3a389 389 0 0 0 16.14 44l4.13 9.75 1.02 2.4c1.53 3.63 3.02 7.27 4.38 10.97a137 137 0 0 0 4.85 11.26l.93 1.97a562 562 0 0 0 12.82 25.26q2.51 4.65 4.87 9.39a583 583 0 0 0 13 24.44 352 352 0 0 1 15 30.56l1.4 3.13c13.56 30.78 20.58 63.35 8.6 95.87l-2 3-3-1c-1.34-3.35-1.23-7-1.4-10.57-1.42-27.98-1.42-27.98-5.6-41.43l-.6-1.95a195 195 0 0 0-15.56-36.66q-2-3.66-3.84-7.39c-3.17-6.42-6.6-12.7-10-19l-1.46-2.7-4.73-8.74q-.75-1.37-1.5-2.8a189 189 0 0 0-6.99-11.98 67 67 0 0 1-5.32-10.78 350 350 0 0 0-3.75-7.06c-5.5-10.2-10.73-20.41-15.07-31.16a99 99 0 0 0-3.62-7.53c-3.18-6.23-5.46-12.78-7.85-19.34q-1.47-3.91-3.02-7.79l-2.69-7.12-1-2.68a324 324 0 0 1-13.38-46.38q-.84-3.94-1.73-7.86c-7-31.5-8.47-64.28-9.5-96.42a141 141 0 0 0-1.98-19c-.95-8.49-.56-17.12-.41-25.66q3.4-1.3 6.81-2.56l1.95-.75c4.9-1.8 4.9-1.8 8.24-.69"/><path fill="#e0ddc8" d="M1259 935.5c2.7-.31 2.7-.31 6 0 2.53 2.13 2.53 2.13 4.94 5l1.3 1.52q1.9 2.22 3.76 4.48c16.17 19.22 37.5 34.11 60 45l6 3.06c38.33 19.05 78.26 27.06 120.67 26.47q4.95-.06 9.88-.05c16.19-.05 32.26-.3 48.35-2.25a255 255 0 0 1 33.1-1.23h2.07c16.36.08 32.04 3.42 47.93 7l2.43.54c25.2 5.77 57.77 15.58 74.57 36.46 1.67 1.44 1.67 1.44 3.19 2.56 6.66 5.5 12.9 13.8 16.81 21.44v4c-4.9-.43-6.91-2.51-10.31-5.94-11.38-10.95-25.74-17.95-39.69-25.06l-1.95-1.02a129 129 0 0 0-15.36-6.54l-2.53-.92a168 168 0 0 0-25.81-7.05q-3.32-.68-6.6-1.53c-6.44-1.61-12.64-2.16-19.25-2.44l-4.97-.22-2.2-.1c-2.33-.18-2.33-.18-4.96-.7-4.64-.66-9.17-.53-13.85-.43l-3.1.06-10.05.2-3.47.07c-14.3.3-28.56.77-42.84 1.68-51.97 3.3-98.42-.5-146.04-22.7q-2.78-1.26-5.61-2.36a49 49 0 0 1-7.16-3.81 194 194 0 0 0-9.75-5.63c-3.3-1.8-6.33-3.8-9.37-6-3.5-2.5-7-4.63-10.82-6.62a47 47 0 0 1-10.25-7.12c-2.83-2.5-5.82-4.77-8.81-7.07a238 238 0 0 1-15.8-13.48 356 356 0 0 0-8.46-7.53q-5.52-4.84-10.99-9.74c.56-3.57 1.69-4.92 4.5-7.12 3.41-2.7 3.41-2.7 4.5-4.88"/><path fill="#ab9c8d" d="M1018 58.5h30a177 177 0 0 1-4.19 17.56 1016 1016 0 0 0-7.22 25.36 338 338 0 0 1-5.68 18.37c-1.14 3.4-2.16 6.82-3.16 10.27l-1.3 4.43-2.25 7.8a940 940 0 0 1-22.4 68.21 149 149 0 0 0-3.18 9.6c-2 6.86-4.37 13.6-6.7 20.34l-2.36 6.88a1885 1885 0 0 1-8.48 24.14q-2.11 6-4.08 12.04l-2.04 6.13-1.07 3.2L969 307.5h-2c-1.34-1.4-1.34-1.4-2.94-3.37-5.35-6.3-11.37-12.3-18.37-16.72-2.69-1.91-2.69-1.91-3.25-5.16.63-4.22 1.94-7.84 3.56-11.75 2.13-5.6 4.1-11.22 5.82-16.95 2.01-6.6 4.23-13.13 6.5-19.65q6.57-18.94 12.87-37.96c3.5-10.56 7.05-21.1 10.74-31.59a1471 1471 0 0 0 8.05-23.84 1936 1936 0 0 1 13.96-40.68c4.88-13.72 9.5-27.5 14.06-41.33m-898 700q10.94-.38 21.88-.55 3.7-.08 7.42-.2c25.13-.87 25.13-.87 35 8.16l2.7 2.59a138 138 0 0 0 4.64 3.33c13.6 9.8 27.11 19.7 40.49 29.8q8.05 6.05 16.3 11.8a489 489 0 0 1 19.18 14.2 463 463 0 0 0 17.36 12.63A499 499 0 0 1 300 851.24c8.82 6.65 17.79 13.11 26.75 19.57q14.2 10.25 28.25 20.69l2.25 1.56 1.75 1.44v2a121 121 0 0 1-6.31 4.06 106 106 0 0 0-16.29 12.38c-2.4 1.56-2.4 1.56-4.84 1.58-3.34-1.33-5.7-3.2-8.5-5.46l-3.46-2.74-1.8-1.42a244 244 0 0 0-8.86-6.46 638 638 0 0 1-15.57-11.4 1944 1944 0 0 0-33.6-24.64q-8.17-5.9-16.27-11.9-9.33-6.9-18.75-13.69-11.92-8.59-23.75-17.31l-2.19-1.61-21.75-16.04c-7.6-5.62-15.21-11.2-22.92-16.66a624 624 0 0 1-15.21-11.28 333 333 0 0 0-16.65-11.67L120 760.5z"/><path fill="#090805" d="m992.75 927.31 2.92-.03c10.71-.03 19.96 2.17 28.33 9.22l2.31 1.37a63 63 0 0 1 8.34 6.33c6.15 3.4 13.9 2.3 20.7 2.13 19.41-.4 38.37.5 53.17 14.56 10.17 10.7 11.84 19.84 11.63 34.43-.35 12.39-3.47 22.84-8.15 34.18h-2l-.75 2c-3.12 7.5-7.02 13.8-11.81 20.31l-1.75 2.42c-5.14 7.05-5.14 7.05-7.69 9.27h-2l-.81 1.81a16 16 0 0 1-4.19 5.2h-2v2c-6.21 5.97-13.4 10.06-21 14q-2.38 1.36-4.75 2.74c-13.81 7.63-29.5 7.4-44.25 3.25a97 97 0 0 1-10-4l-2.09-.91c-14.9-7.3-28.45-22.2-38.32-35.16-1.59-1.93-1.59-1.93-3.59-2.93a137 137 0 0 1-3.75-7.13l-1.07-2.15a240 240 0 0 1-9.18-21.72l-1.1-2.93c-5.65-19.32-3.2-43.46 6.04-61.26q1.47-2.44 3.06-4.8l1.6-2.45c2.84-4.04 2.84-4.04 4.4-5.56h3v-2c10.31-8.68 21.61-12.18 34.75-12.19M973 943.51l-2.78 1.65c-12.22 8-16.77 19.17-19.81 33.03-.6 4.83-.6 9.63-.6 14.5l-.03 2.96c-.02 9.64 1.37 18.71 4.85 27.72l.78 2.06c4.38 10.93 10.76 19.81 18.87 28.23 2.5 2.6 4.82 5.29 7.16 8.03 7.3 8.15 16.76 15.28 27.12 18.93l2.82 1.01c13.23 4.38 27.28 2.26 39.56-3.76 11.35-5.8 20.27-13.17 29.06-22.37l2.46-2.34c3-3.14 5.41-6.46 7.85-10.04l1.44-2.1c11-16.35 20.65-35.23 18.25-55.52-1.69-8.06-4.55-14.7-11-20-12.54-8.05-26.41-9.39-41-8.75-26.23 1.08-26.23 1.08-33.81-5.06-2.9-2.71-2.9-2.71-5.19-5.19-11.53-9.28-33.29-11-46-3"/></svg>